<svg width="26" height="13" viewBox="0 0 26 13" fill="none" xmlns="http://www.w3.org/2000/svg">
<path fill-rule="evenodd" clip-rule="evenodd" d="M18.5977 0.34725C19.0207 -0.0758331 19.7067 -0.0758331 20.1297 0.34725L25.433 5.65058C25.8561 6.07358 25.8561 6.75958 25.433 7.18258L20.1297 12.4859C19.7067 12.909 19.0207 12.909 18.5977 12.4859C18.1746 12.0628 18.1746 11.3769 18.5977 10.9538L22.0516 7.49992H5.50033C4.90199 7.49992 4.41699 7.01492 4.41699 6.41658C4.41699 5.81825 4.90199 5.33325 5.50033 5.33325H22.0516L18.5977 1.87933C18.1746 1.45625 18.1746 0.770334 18.5977 0.34725ZM19.7762 0.700835C19.5483 0.473001 19.179 0.473001 18.9512 0.700835C18.7234 0.928585 18.7234 1.29792 18.9512 1.52575L22.8319 5.4065C22.9034 5.478 22.9248 5.5855 22.8861 5.67892C22.8474 5.77233 22.7562 5.83325 22.6552 5.83325H5.50033C5.17816 5.83325 4.91699 6.09442 4.91699 6.41658C4.91699 6.73875 5.17816 6.99992 5.50033 6.99992H22.6552C22.7562 6.99992 22.8474 7.06083 22.8861 7.15425C22.9248 7.24767 22.9034 7.35517 22.8319 7.42667L18.9512 11.3074C18.7234 11.5353 18.7234 11.9046 18.9512 12.1323C19.179 12.3602 19.5483 12.3602 19.7762 12.1323L25.0795 6.82908C25.3072 6.60125 25.3072 6.23192 25.0795 6.00408L19.7762 0.700835Z" fill="#743ADC"/>
<path d="M2.16667 6.41668C2.16667 6.87692 1.79358 7.25001 1.33333 7.25001C0.873083 7.25001 0.5 6.87692 0.5 6.41668C0.5 5.95643 0.873083 5.58334 1.33333 5.58334C1.79358 5.58334 2.16667 5.95643 2.16667 6.41668Z" fill="#743ADC"/>
<path fill-rule="evenodd" clip-rule="evenodd" d="M19.9529 0.523832L25.2562 5.82717C25.5817 6.15259 25.5817 6.68025 25.2562 7.00567L19.9529 12.309C19.6275 12.6344 19.0999 12.6344 18.7744 12.309C18.449 11.9835 18.449 11.4559 18.7744 11.1305L22.6552 7.24975H5.50033C5.04008 7.24975 4.66699 6.87667 4.66699 6.41642C4.66699 5.95617 5.04008 5.58308 5.50033 5.58308H22.6552L18.7744 1.70233C18.449 1.37692 18.449 0.849333 18.7744 0.523832C19.0999 0.198416 19.6275 0.198416 19.9529 0.523832Z" fill="#743ADC"/>
<path fill-rule="evenodd" clip-rule="evenodd" d="M1.33333 5.8335C1.01117 5.8335 0.75 6.09466 0.75 6.41683C0.75 6.739 1.01117 7.00016 1.33333 7.00016C1.6555 7.00016 1.91667 6.739 1.91667 6.41683C1.91667 6.09466 1.6555 5.8335 1.33333 5.8335ZM0.25 6.41683C0.25 5.8185 0.735 5.3335 1.33333 5.3335C1.93167 5.3335 2.41667 5.8185 2.41667 6.41683C2.41667 7.01516 1.93167 7.50016 1.33333 7.50016C0.735 7.50016 0.25 7.01516 0.25 6.41683Z" fill="#743ADC"/>
</svg>
