<svg width="14" height="15" viewBox="0 0 14 15" fill="none" xmlns="http://www.w3.org/2000/svg">
<path d="M7.77343 7.28961L13.8398 0.972226C14.0534 0.749809 14.0534 0.389202 13.8398 0.166813C13.6262 -0.0555759 13.28 -0.0556044 13.0664 0.166813L6.99999 6.4842L0.933602 0.166813C0.72002 -0.0556044 0.37374 -0.0556044 0.160186 0.166813C-0.053368 0.389231 -0.0533954 0.749837 0.160186 0.972226L6.22657 7.28959L0.160186 13.607C-0.0533954 13.8294 -0.0533954 14.19 0.160186 14.4124C0.266963 14.5236 0.406935 14.5792 0.546908 14.5792C0.68688 14.5792 0.826825 14.5236 0.933629 14.4124L6.99999 8.09503L13.0664 14.4124C13.1731 14.5236 13.3131 14.5792 13.4531 14.5792C13.5931 14.5792 13.733 14.5236 13.8398 14.4124C14.0534 14.19 14.0534 13.8294 13.8398 13.607L7.77343 7.28961Z" fill="black"/>
</svg>
