<svg width="26" height="26" viewBox="0 0 26 26" fill="none" xmlns="http://www.w3.org/2000/svg">
    <path d="M9.80289 1.46154V4.66667C9.80289 4.92168 9.70158 5.16625 9.52126 5.34658C9.34093 5.5269 9.09636 5.62821 8.84135 5.62821C8.58633 5.62821 8.34176 5.5269 8.16144 5.34658C7.98111 5.16625 7.87981 4.92168 7.87981 4.66667V1.46154C7.87981 1.20652 7.98111 0.961952 8.16144 0.781628C8.34176 0.601305 8.58633 0.5 8.84135 0.5C9.09636 0.5 9.34093 0.601305 9.52126 0.781628C9.70158 0.961952 9.80289 1.20652 9.80289 1.46154Z"
          fill="#2E8DFD"/>
    <path d="M24.7516 5.3718C24.6918 4.54617 24.3359 3.76991 23.7493 3.18576C23.1628 2.6016 22.3852 2.24883 21.5593 2.19231C20.726 2.12821 19.7772 2.0641 18.7772 2.01282V4.66667C18.7772 5.2617 18.5409 5.83237 18.1201 6.25312C17.6994 6.67388 17.1287 6.91026 16.5337 6.91026C15.9386 6.91026 15.368 6.67388 14.9472 6.25312C14.5264 5.83237 14.2901 5.2617 14.2901 4.66667V1.78205H11.0849V4.66667C11.0849 5.2617 10.8486 5.83237 10.4278 6.25312C10.007 6.67388 9.43638 6.91026 8.84135 6.91026C8.24631 6.91026 7.67564 6.67388 7.25489 6.25312C6.83413 5.83237 6.59776 5.2617 6.59776 4.66667V2.01282C5.59776 2.01282 4.64904 2.12821 3.80288 2.19231C2.97795 2.25144 2.20174 2.60505 1.61575 3.18869C1.02976 3.77232 0.673026 4.54711 0.610577 5.3718C0.418269 7.74359 0.1875 11.1026 0.1875 13.641C0.1875 16.1795 0.418269 19.5513 0.610577 21.9231C0.673368 22.7464 1.03057 23.5196 1.6168 24.1011C2.20302 24.6826 2.97907 25.0336 3.80288 25.0897C6.36699 25.2821 9.98237 25.5 12.6875 25.5C15.3926 25.5 18.9952 25.2821 21.5593 25.0897C22.384 25.0362 23.1616 24.6861 23.7483 24.1041C24.3351 23.522 24.6914 22.7474 24.7516 21.9231C24.9567 19.5513 25.1875 16.1923 25.1875 13.641C25.1875 11.0897 24.9567 7.74359 24.7516 5.3718ZM7.5593 18.1923C7.21927 18.1923 6.89318 18.0572 6.65275 17.8168C6.41232 17.5764 6.27724 17.2503 6.27724 16.9103C6.27724 16.5702 6.41232 16.2441 6.65275 16.0037C6.89318 15.7633 7.21927 15.6282 7.5593 15.6282C7.89932 15.6282 8.22541 15.7633 8.46584 16.0037C8.70627 16.2441 8.84135 16.5702 8.84135 16.9103C8.84135 17.2503 8.70627 17.5764 8.46584 17.8168C8.22541 18.0572 7.89932 18.1923 7.5593 18.1923ZM7.5593 13.0641C7.21927 13.0641 6.89318 12.929 6.65275 12.6886C6.41232 12.4482 6.27724 12.1221 6.27724 11.7821C6.27724 11.442 6.41232 11.1159 6.65275 10.8755C6.89318 10.6351 7.21927 10.5 7.5593 10.5C7.89932 10.5 8.22541 10.6351 8.46584 10.8755C8.70627 11.1159 8.84135 11.442 8.84135 11.7821C8.84135 12.1221 8.70627 12.4482 8.46584 12.6886C8.22541 12.929 7.89932 13.0641 7.5593 13.0641ZM12.6875 18.1923C12.3475 18.1923 12.0214 18.0572 11.781 17.8168C11.5405 17.5764 11.4054 17.2503 11.4054 16.9103C11.4054 16.5702 11.5405 16.2441 11.781 16.0037C12.0214 15.7633 12.3475 15.6282 12.6875 15.6282C13.0275 15.6282 13.3536 15.7633 13.594 16.0037C13.8345 16.2441 13.9696 16.5702 13.9696 16.9103C13.9696 17.2503 13.8345 17.5764 13.594 17.8168C13.3536 18.0572 13.0275 18.1923 12.6875 18.1923ZM12.6875 13.0641C12.3475 13.0641 12.0214 12.929 11.781 12.6886C11.5405 12.4482 11.4054 12.1221 11.4054 11.7821C11.4054 11.442 11.5405 11.1159 11.781 10.8755C12.0214 10.6351 12.3475 10.5 12.6875 10.5C13.0275 10.5 13.3536 10.6351 13.594 10.8755C13.8345 11.1159 13.9696 11.442 13.9696 11.7821C13.9696 12.1221 13.8345 12.4482 13.594 12.6886C13.3536 12.929 13.0275 13.0641 12.6875 13.0641ZM17.8157 13.0641C17.4757 13.0641 17.1496 12.929 16.9092 12.6886C16.6687 12.4482 16.5337 12.1221 16.5337 11.7821C16.5337 11.442 16.6687 11.1159 16.9092 10.8755C17.1496 10.6351 17.4757 10.5 17.8157 10.5C18.1557 10.5 18.4818 10.6351 18.7223 10.8755C18.9627 11.1159 19.0978 11.442 19.0978 11.7821C19.0978 12.1221 18.9627 12.4482 18.7223 12.6886C18.4818 12.929 18.1557 13.0641 17.8157 13.0641Z"
          fill="#2E8DFD"/>
    <path d="M17.4952 1.46154V4.66667C17.4952 4.92168 17.3939 5.16625 17.2136 5.34658C17.0332 5.5269 16.7887 5.62821 16.5337 5.62821C16.2786 5.62821 16.0341 5.5269 15.8537 5.34658C15.6734 5.16625 15.5721 4.92168 15.5721 4.66667V1.46154C15.5721 1.20652 15.6734 0.961952 15.8537 0.781628C16.0341 0.601305 16.2786 0.5 16.5337 0.5C16.7887 0.5 17.0332 0.601305 17.2136 0.781628C17.3939 0.961952 17.4952 1.20652 17.4952 1.46154Z"
          fill="#2E8DFD"/>
</svg>
