<svg width="28" height="31" viewBox="0 0 28 31" fill="none" xmlns="http://www.w3.org/2000/svg">
<path d="M2.76312 4.42568C2.72243 3.698 3.27936 3.07511 4.00704 3.03443L20.1474 2.13201C20.8751 2.09133 21.498 2.64825 21.5387 3.37593L22.8647 27.0924C22.9054 27.8201 22.3485 28.443 21.6208 28.4837L5.48037 29.3861C4.75269 29.4268 4.12981 28.8699 4.08912 28.1422L2.76312 4.42568Z" fill="#D6D6D6"/>
<path d="M8.42256 1.75537C8.47827 1.02014 9.11946 0.469285 9.85469 0.525001L26.1625 1.7608C26.8977 1.81652 27.4486 2.4577 27.3928 3.19293L25.577 27.1554C25.5213 27.8906 24.8801 28.4415 24.1448 28.3858L7.83705 27.15C7.10182 27.0942 6.55097 26.4531 6.60669 25.7178L8.42256 1.75537Z" fill="#FFFAF8"/>
<path d="M9.97032 3.37912C10.0191 2.7358 10.55 2.25152 11.1563 2.29746L24.6031 3.31645C25.2093 3.36239 25.6612 3.92115 25.6125 4.56448L24.0236 25.5316C23.9749 26.175 23.4439 26.6592 22.8376 26.6133L9.39086 25.5943C8.78462 25.5484 8.33268 24.9896 8.38143 24.3463L9.97032 3.37912Z" fill="#E68F71"/>
<path d="M17.1702 20.7939C18.7218 19.619 21.2546 21.1034 21.7441 14.6436C21.7669 14.3422 21.7624 14.045 21.7327 13.7545C17.9664 12.2257 13.6445 12.6235 11.9543 13.0135C11.8811 13.2962 11.8319 13.5893 11.8091 13.8907C11.3196 20.3505 14.0471 19.2647 15.4039 20.66C15.8051 21.0726 16.1152 21.3225 16.2412 21.332C16.3672 21.3416 16.7114 21.1413 17.1702 20.7939Z" fill="#443321"/>
<path fill-rule="evenodd" clip-rule="evenodd" d="M20.3568 14.5178C20.6903 14.5411 20.9417 14.8303 20.9184 15.1638C20.898 15.455 20.8305 16.3507 20.5097 17.1432C20.3843 17.4531 20.0314 17.6026 19.7216 17.4772C19.4117 17.3518 19.2622 16.9989 19.3876 16.6891C19.6296 16.0914 19.6906 15.3677 19.7108 15.0793C19.7341 14.7459 20.0234 14.4944 20.3568 14.5178Z" fill="#E68F71"/>
<ellipse cx="19.1002" cy="18.248" rx="0.616076" ry="0.616077" transform="rotate(4.39679 19.1002 18.248)" fill="#E68F71"/>
<path fill-rule="evenodd" clip-rule="evenodd" d="M17.2244 9.36631C16.0594 8.76417 13.5043 7.95474 12.1749 9.34071C10.8248 10.7483 11.4507 12.0614 11.9324 12.542C12.5722 12.3335 14.4768 11.966 17.0072 12.1495C19.5428 12.3482 21.3753 13.0002 21.9774 13.3032C22.526 12.9007 23.3426 11.6969 22.22 10.102C21.1147 8.53152 18.4669 8.94661 17.2244 9.36631Z" fill="#FDD849"/>
<path d="M17.804 8.96524C17.5562 9.36127 16.9658 9.31653 16.7806 8.88768C16.6077 8.48757 16.9218 8.04704 17.3564 8.07998C17.791 8.11291 18.0351 8.59573 17.804 8.96524Z" fill="#FDD849"/>
<path fill-rule="evenodd" clip-rule="evenodd" d="M16.7382 11.5731C14.9392 11.1754 13.0673 11.5506 12.3635 11.7861C12.2823 11.8132 12.1945 11.7694 12.1673 11.6883C12.1401 11.6071 12.1839 11.5193 12.2651 11.4921C13.0042 11.2448 14.9353 10.8571 16.8051 11.2704C16.8887 11.2889 16.9415 11.3716 16.923 11.4552C16.9045 11.5388 16.8218 11.5916 16.7382 11.5731Z" fill="#E68F71"/>
<path fill-rule="evenodd" clip-rule="evenodd" d="M16.0133 10.8736C14.6649 10.6129 13.2734 10.8967 12.7534 11.0694C12.6722 11.0964 12.5845 11.0524 12.5575 10.9711C12.5305 10.8899 12.5745 10.8022 12.6558 10.7752C13.2096 10.5913 14.6568 10.2956 16.0721 10.5692C16.1562 10.5855 16.2111 10.6668 16.1949 10.7508C16.1786 10.8349 16.0973 10.8898 16.0133 10.8736Z" fill="#E68F71"/>
<path fill-rule="evenodd" clip-rule="evenodd" d="M15.3046 10.1692C14.3659 9.98766 13.3952 10.1856 13.0344 10.3054C12.9532 10.3324 12.8654 10.2884 12.8385 10.2072C12.8115 10.1259 12.8555 10.0382 12.9367 10.0112C13.3314 9.88017 14.3578 9.67037 15.3635 9.86483C15.4475 9.88108 15.5024 9.96239 15.4862 10.0464C15.4699 10.1305 15.3886 10.1854 15.3046 10.1692Z" fill="#E68F71"/>
</svg>
