<svg width="15" height="19" viewBox="0 0 15 19" fill="none" xmlns="http://www.w3.org/2000/svg">
<path d="M4.86584 0.75C4.86584 0.370304 5.17426 0.0625 5.5547 0.0625H9.22863C9.60908 0.0625 9.91749 0.370304 9.91749 0.75V1.4375H13.821C14.2015 1.4375 14.5099 1.7453 14.5099 2.125C14.5099 2.5047 14.2015 2.8125 13.821 2.8125H0.962298C0.581851 2.8125 0.273438 2.5047 0.273438 2.125C0.273438 1.7453 0.581851 1.4375 0.962298 1.4375H4.86584V0.75Z" fill="white"/>
<path fill-rule="evenodd" clip-rule="evenodd" d="M2.10112 5.28272C2.12696 5.0506 2.32355 4.875 2.55755 4.875H12.2258C12.4598 4.875 12.6564 5.0506 12.6822 5.28272L12.866 6.93395C13.1974 9.91035 13.1974 12.9142 12.866 15.8906L12.8479 16.0532C12.7273 17.1372 11.8854 18.0016 10.8031 18.1528C8.53986 18.469 6.24347 18.469 3.98019 18.1528C2.89788 18.0016 2.05607 17.1372 1.93538 16.0532L1.91729 15.8906C1.58592 12.9142 1.58592 9.91035 1.91729 6.93395L2.10112 5.28272ZM9.71574 9.43053C9.98475 9.69902 9.98475 10.1343 9.71574 10.4028L8.36586 11.75L9.71573 13.0972C9.98474 13.3657 9.98474 13.801 9.71573 14.0695C9.44671 14.338 9.01055 14.338 8.74153 14.0695L7.39167 12.7223L6.04181 14.0695C5.77279 14.338 5.33663 14.338 5.06761 14.0695C4.7986 13.801 4.7986 13.3657 5.06761 13.0972L6.41747 11.75L5.06761 10.4028C4.79859 10.1343 4.79859 9.69902 5.06761 9.43054C5.33662 9.16205 5.77279 9.16205 6.0418 9.43054L7.39167 10.7777L8.74154 9.43053C9.01056 9.16205 9.44672 9.16205 9.71574 9.43053Z" fill="white"/>
</svg>
