<svg width="28" height="28" viewBox="0 0 28 28" fill="none" xmlns="http://www.w3.org/2000/svg">
<path d="M5.83127 3.51243L14.8432 0.333336L25.2971 5.05901L28.0006 13.2215L26.739 16.4006L26.2884 22.9306L23.3144 26.7112L19.6195 28H7.27318L5.29055 26.7112L0.333984 24.5632L0.784582 20.6108L0.333984 11.3313L5.83127 3.51243Z" fill="#6862CC"/>
<mask id="mask0_134_1446" style="mask-type:alpha" maskUnits="userSpaceOnUse" x="0" y="0" width="28" height="28">
<path d="M5.83127 3.51243L14.8432 0.333336L25.2971 5.05901L28.0006 13.2215L26.739 16.4006L26.2884 22.9306L23.3144 26.7112L19.6195 28H7.27318L5.29055 26.7112L0.333984 24.5632L0.784582 20.6108L0.333984 11.3313L5.83127 3.51243Z" fill="#6862CC"/>
</mask>
<g mask="url(#mask0_134_1446)">
<path d="M2.06328 12.1781L0.420573 11.3135L-1.82734 15.2042L-2.60547 25.2333L1.63099 30.5937L17.1935 35.9542L28.606 27.8271L31.5456 12.1781L25.2341 4.74271V15.6365L23.5049 20.3052L20.6518 21.6885L17.6258 20.9104L8.80703 23.7635L3.01432 20.9104L2.06328 12.1781Z" fill="#3D37A6"/>
<path d="M14.7714 2.66771L26.0974 7.94167V2.66771L15.2036 -3.98958L3.09948 0.333338L-0.445312 10.9677L2.14844 12.2646L7.07656 4.82917L14.7714 2.66771Z" fill="#A09AFF"/>
</g>
<path d="M14.7691 23.8813L15.4701 22.7372C15.5608 22.5891 15.783 22.6139 15.8389 22.7783L16.3035 24.1444C16.3222 24.1994 16.3634 24.2439 16.4169 24.2668L17.4908 24.726C17.6495 24.7939 17.6584 25.0155 17.5057 25.0958L16.1182 25.8259C16.0886 25.8415 16.0632 25.8641 16.0444 25.8918L15.2332 27.0801C15.1355 27.2233 14.9151 27.1879 14.8671 27.0213L14.4693 25.6419C14.4595 25.6078 14.441 25.5769 14.4156 25.5521L13.2549 24.4181C13.1285 24.2946 13.2072 24.0798 13.3834 24.0671L14.6091 23.9787C14.675 23.9739 14.7346 23.9377 14.7691 23.8813Z" fill="#B19E77"/>
<path fill-rule="evenodd" clip-rule="evenodd" d="M20.8515 8.06341C21.9215 9.65234 22.2879 11.5378 22.0526 13.4673C21.864 15.0137 21.2362 16.757 19.6535 17.9669C18.1396 19.1242 16.4769 19.2275 15.4753 19.1778C15.0349 19.1559 14.6044 19.0969 14.2209 19.0281C13.9492 19.8206 13.4374 20.5394 12.7051 21.0655C10.8285 22.4136 8.2144 21.9852 6.86628 20.1086C5.20263 17.7928 4.38754 15.0995 4.73535 12.4274C5.08685 9.72697 6.59364 7.38922 8.89479 5.91859C11.2129 4.43717 14.3973 4.20263 16.962 5.11302C18.347 5.60465 19.8134 6.52177 20.8515 8.06341Z" fill="#FAEFD9"/>
<mask id="mask1_134_1446" style="mask-type:alpha" maskUnits="userSpaceOnUse" x="4" y="4" width="19" height="18">
<path fill-rule="evenodd" clip-rule="evenodd" d="M20.8515 8.06341C21.9215 9.65234 22.2879 11.5378 22.0526 13.4673C21.864 15.0137 21.2362 16.757 19.6535 17.9669C18.1396 19.1242 16.4769 19.2275 15.4753 19.1778C15.0349 19.1559 14.6044 19.0969 14.2209 19.0281C13.9492 19.8206 13.4374 20.5394 12.7051 21.0655C10.8285 22.4136 8.2144 21.9852 6.86628 20.1086C5.20263 17.7928 4.38754 15.0995 4.73535 12.4274C5.08685 9.72697 6.59364 7.38922 8.89479 5.91859C11.2129 4.43717 14.3973 4.20263 16.962 5.11302C18.347 5.60465 19.8134 6.52177 20.8515 8.06341Z" fill="#FAEFD9"/>
</mask>
<g mask="url(#mask1_134_1446)">
<path fill-rule="evenodd" clip-rule="evenodd" d="M14.5375 9.56519C13.8307 9.55685 13.1931 9.78961 12.8265 10.0787L12.8265 10.0787C11.4008 11.2032 11.1221 12.4994 11.3256 13.6855C11.5347 14.9037 12.2603 16.0243 12.8735 16.6952C13.0208 16.8564 13.0086 17.1055 12.8462 17.2517C12.6837 17.3979 12.4327 17.3857 12.2854 17.2245C11.6083 16.4838 10.7854 15.2309 10.5429 13.8178C10.2948 12.3727 10.6613 10.78 12.3324 9.46195C12.8591 9.0465 13.6806 8.76713 14.547 8.77736C15.4248 8.78771 16.3768 9.09604 17.1361 9.8938C17.627 10.4096 17.8289 10.9954 17.7895 11.5538C17.7505 12.1047 17.4787 12.5964 17.0825 12.9367C16.6855 13.2775 16.1524 13.4757 15.5826 13.4235C15.0075 13.3707 14.4368 13.067 13.9582 12.4804C13.8203 12.3113 13.8466 12.0632 14.017 11.9263C14.1874 11.7894 14.4374 11.8155 14.5754 11.9846C14.9405 12.4321 15.3251 12.6086 15.6557 12.6389C15.9917 12.6697 16.3146 12.554 16.5629 12.3409C16.8118 12.1271 16.9743 11.8248 16.9973 11.4986C17.0199 11.1798 16.9116 10.8054 16.5588 10.4348C15.9683 9.81433 15.2329 9.5734 14.5375 9.56519Z" fill="#B29E77"/>
<path d="M14.4459 19.1319C12.6724 18.1409 11.4126 16.5171 10.8896 14.9482C10.7793 14.7181 11.2492 13.811 11.4126 14.0068C12.4586 15.7849 14.0898 17.3538 16.3286 17.3538C18.9913 17.3538 20.9259 15.2951 21.8768 13.6704C21.9891 13.4785 22.2888 13.5485 22.2671 13.7698C21.8742 17.7626 17.753 20.9801 14.4459 19.1319Z" fill="#B29E77"/>
<path d="M9.53097 20.387C7.60643 20.0523 5.59124 17.3887 4.82422 16.0987C4.82422 20.1779 6.60232 22.5835 10.5769 22.7927C13.7566 22.9601 14.412 20.0733 14.3423 18.6089C13.5404 19.3411 11.4555 20.7218 9.53097 20.387Z" fill="#B29E77"/>
<path d="M6.39584 13.3792C4.72233 14.1323 4.37368 12.3682 4.40855 11.3919C6.70962 3.86114 14.5542 2.71061 17.2737 4.07034C19.9931 5.43007 18.738 7.20817 17.692 7.83573C16.6461 8.4633 15.1818 6.16223 11.8348 7.20817C7.96476 8.41753 8.48773 12.4379 6.39584 13.3792Z" fill="#FFFBF3"/>
<path d="M19.3656 8.77709C19.4492 7.94034 20.3766 7.59169 20.8299 7.52196C21.8758 8.42844 23.6121 10.4715 22.1896 11.3919C20.4115 12.5425 19.261 9.82304 19.3656 8.77709Z" fill="#FFFBF3"/>
<path fill-rule="evenodd" clip-rule="evenodd" d="M13.171 14.131C13.5212 13.6716 14.1776 13.5832 14.6369 13.9335C14.6399 13.9357 14.6429 13.938 14.6459 13.9403C15.0233 14.2282 15.7769 14.803 17.0223 14.3193C17.5607 14.1102 18.1668 14.3772 18.3759 14.9156C18.585 15.4541 18.318 16.0602 17.7796 16.2693C15.4411 17.1775 13.8616 15.9729 13.3747 15.6016C13.3726 15.6 13.3705 15.5985 13.3685 15.5969C12.9092 15.2467 12.8207 14.5904 13.171 14.131Z" fill="#FFFBF3"/>
</g>
<path d="M19.4601 21.4687L17.7674 22.4561C17.6416 22.5296 17.6574 22.7162 17.7939 22.7674L19.4305 23.3812C19.4905 23.4037 19.5331 23.4574 19.5413 23.5209L19.826 25.727C19.8448 25.8732 20.0262 25.9303 20.1254 25.8212L21.5426 24.2622C21.5805 24.2206 21.6362 24.2 21.692 24.207L23.421 24.4231C23.5433 24.4384 23.6419 24.3244 23.6091 24.2055L23.0014 22.0025C22.9916 21.9671 22.9934 21.9294 23.0065 21.895L23.5735 20.4065C23.6204 20.2834 23.5179 20.1552 23.3875 20.1738L21.9257 20.3826C21.8848 20.3885 21.8432 20.3795 21.8084 20.3573L20.1749 19.3178C20.0719 19.2523 19.9353 19.3112 19.9122 19.431L19.5428 21.352C19.5334 21.4011 19.5032 21.4436 19.4601 21.4687Z" fill="#FAEFD9"/>
<path d="M19.4601 21.4688L17.7674 22.4562C17.6416 22.5296 17.6574 22.7163 17.7939 22.7674L19.4305 23.3812C19.4905 23.4037 19.5331 23.4575 19.5413 23.521L19.826 25.727C19.8448 25.8732 20.0262 25.9303 20.1254 25.8212L21.5426 24.2623C21.5805 24.2206 21.6362 24.2 21.692 24.207L23.421 24.4231C23.5433 24.4384 23.6419 24.3244 23.6091 24.2055L23.0014 22.0025C22.9916 21.9671 22.9934 21.9294 23.0065 21.895L23.5735 20.4066C23.6003 20.3362 23.5783 20.2641 23.5302 20.2188L23.5051 20.3052L20.6519 21.6886L19.528 21.3961C19.5131 21.4262 19.4897 21.4515 19.4601 21.4688Z" fill="#B19E77"/>
<path fill-rule="evenodd" clip-rule="evenodd" d="M20.7558 21.7313C20.6664 21.5302 20.7572 21.2738 20.9587 21.1585L21.8098 20.6715C22.0113 20.5562 22.2472 20.6256 22.3367 20.8267C22.4262 21.0277 22.3353 21.2841 22.1338 21.3995L21.2827 21.8865C21.0812 22.0018 20.8453 21.9323 20.7558 21.7313Z" fill="#FFFBF3"/>
</svg>
