<svg width="1498" height="304" viewBox="0 0 1498 304" fill="none" xmlns="http://www.w3.org/2000/svg">
<path d="M15.1077 47.1308C15.3727 47.1308 15.3728 47.1308 15.6378 47.1308C15.9028 47.1308 15.9028 47.1308 15.9028 46.8657C17.4931 38.6493 22.2639 33.3483 29.6852 31.7581C29.9503 31.7581 29.9502 31.4931 29.9502 31.228C29.9502 31.228 29.9502 31.228 29.9502 30.963C29.9502 30.6979 29.9503 30.6979 29.6852 30.6979C21.9989 29.1076 16.963 23.2766 15.6378 14H15.3727C15.3727 14 15.3727 14 15.1077 14C14.8426 14 14.8425 13.9999 14.8425 14.265C13.5173 23.5416 8.21637 29.3727 0.264982 30.6979C-6.47125e-05 30.6979 0 30.963 0 30.963C0 31.228 -6.47125e-05 31.2279 0.264982 31.493C8.21637 33.0833 13.2523 38.3843 15.1077 47.1308C14.8426 47.1308 14.8426 47.1308 15.1077 47.1308Z" fill="#B047F1" fill-opacity="0.2"/>
<path opacity="0.49" d="M1205.87 105.9C1209.85 89.8768 1192.41 77.0775 1176.93 71.3553C1146.72 60.1599 1112.95 56.1963 1087.02 36.9982C1063.58 19.4979 1049.98 -8.1644 1041.27 -36.0189C1032.55 -63.8735 1027.67 -93.0498 1017.37 -120.313C998.138 -170.718 959.052 -213.004 910.99 -237.176L675.609 -81.3551C681.021 -67.4414 686.645 -53.6675 693.571 -40.9086C718.342 3.85505 762.9 37.1936 812.825 48.1131C846.8 55.5947 882.03 53.2681 916.647 57.1295C954.11 61.3887 990.71 73.0659 1023.67 91.4118C1059.27 111.21 1093.22 139.548 1133.92 141.358C1155.4 142.355 1177.14 135.264 1194.02 121.963C1199.09 117.692 1204.17 112.506 1205.87 105.9Z" fill="url(#paint0_linear_1001_3936)"/>
<path opacity="0.78" d="M874.248 41.9054C874.374 41.9054 874.626 41.9054 874.752 41.9054C874.879 41.9054 875.005 41.7792 875.131 41.653C876.645 34.082 881.061 29.2871 887.748 27.899C887.874 27.899 888 27.6467 888 27.5205V27.3943C888 27.2681 887.874 27.142 887.748 27.142C880.682 25.6278 876.14 20.3281 875.005 12C874.878 12 874.879 12 874.752 12H874.626C874.5 12 874.374 12.1262 874.374 12.2524C873.112 20.5804 868.444 25.8801 861.252 27.142C861.126 27.142 861 27.2681 861 27.3943C861 27.5205 861.126 27.7729 861.252 27.7729C868.192 29.0347 872.86 33.9558 874.248 41.9054C874.248 42.0315 874.121 42.0315 874.248 41.9054Z" fill="white"/>
<path d="M571.062 32C571.186 32 571.186 32 571.31 32C571.434 32 571.434 32 571.434 31.872C572.177 27.904 574.407 25.344 577.876 24.576C578 24.576 578 24.448 578 24.32C578 24.32 578 24.32 578 24.192C578 24.064 578 24.064 577.876 24.064C574.283 23.296 571.929 20.48 571.31 16H571.186C571.186 16 571.186 16 571.062 16C570.938 16 570.938 16 570.938 16.128C570.319 20.608 567.841 23.424 564.124 24.064C564 24.064 564 24.192 564 24.192C564 24.32 564 24.32 564.124 24.448C567.965 25.216 570.319 27.904 571.062 32Z" fill="#B047F1"/>
<path d="M1240.04 85C1240.16 85 1240.29 85 1240.42 85C1240.54 85 1240.67 84.8698 1240.67 84.7396C1241.81 78.4896 1245.37 74.4531 1250.82 73.2812C1250.95 73.2812 1251.07 73.1511 1250.95 73.0208V72.8906C1250.95 72.7604 1250.82 72.6302 1250.69 72.6302C1244.98 71.4583 1241.31 67.0313 1240.42 60H1240.29H1240.16C1240.04 60 1239.91 60.1302 1239.91 60.2604C1238.9 67.1614 1235.09 71.5885 1229.25 72.6302C1229.13 72.6302 1229.13 72.7604 1229 72.8906C1229 73.0208 1229.13 73.1511 1229.25 73.1511C1234.84 74.1927 1238.64 78.3594 1239.78 84.8698C1239.91 85 1239.91 85 1240.04 85Z" fill="white" fill-opacity="0.5"/>
<path d="M177.943 72.5064C217.848 72.5064 250.196 40.1576 250.196 0.25322C250.196 -39.6511 217.848 -72 177.943 -72C138.039 -72 105.69 -39.6511 105.69 0.25322C105.69 40.1576 138.039 72.5064 177.943 72.5064Z" fill="url(#paint1_linear_1001_3936)"/>
<path opacity="0.15" d="M249.816 6.8447C246.014 11.6616 242.084 16.4785 237.901 21.0418C227.38 32.577 214.577 42.8446 199.493 46.9009C183.521 51.2107 166.282 48.1685 151.07 41.7037C142.197 38.0277 133.704 33.084 127.113 26.1122C117.732 15.9714 113.169 1.90107 112.662 -12.0425C112.282 -19.6481 113.042 -27.127 114.437 -34.6058C108.732 -24.3382 105.563 -12.5496 105.563 0.126434C105.563 40.0558 137.887 72.3797 177.817 72.3797C215.591 72.3797 246.521 43.6051 249.816 6.8447Z" fill="url(#paint2_linear_1001_3936)"/>
<path d="M182.507 43.7319C175.535 43.7319 175.408 54.6333 182.507 54.6333C189.479 54.6333 189.606 43.7319 182.507 43.7319Z" fill="url(#paint3_linear_1001_3936)"/>
<path d="M176.168 64.5205C171.478 64.5205 169.197 68.3233 169.323 71.8726C172.112 72.2529 175.028 72.3796 177.816 72.3796C179.464 72.3796 181.239 72.2529 182.887 72.1261C183.267 68.4501 180.985 64.5205 176.168 64.5205Z" fill="url(#paint4_linear_1001_3936)"/>
<path d="M153.098 36.1263C158.979 36.1263 163.746 31.3591 163.746 25.4785C163.746 19.5978 158.979 14.8306 153.098 14.8306C147.217 14.8306 142.45 19.5978 142.45 25.4785C142.45 31.3591 147.217 36.1263 153.098 36.1263Z" fill="url(#paint5_linear_1001_3936)"/>
<path opacity="0.3" d="M145.493 33.085C141.31 28.9019 141.31 22.1836 145.493 18.0006C149.676 13.8175 156.394 13.8175 160.577 18.0006C164.76 22.1836 164.76 28.9019 160.577 33.085C156.394 37.2681 149.676 37.2681 145.493 33.085Z" stroke="url(#paint6_linear_1001_3936)" stroke-width="0.8029" stroke-miterlimit="10"/>
<path d="M215.591 21.0421C220.154 24.4646 221.042 30.8026 217.619 35.366C214.196 39.9293 207.858 40.8167 203.295 37.3941C198.732 33.9716 197.844 27.6336 201.267 23.0703C204.689 18.6337 211.154 17.7463 215.591 21.0421Z" fill="url(#paint7_linear_1001_3936)"/>
<path opacity="0.3" d="M211.027 39.2953C205.45 40.0558 200.253 36.2531 199.492 30.6756C198.732 25.0982 202.534 19.901 208.112 19.1405C213.689 18.3799 218.887 22.1827 219.647 27.7601C220.408 33.3376 216.605 38.5347 211.027 39.2953Z" stroke="url(#paint8_linear_1001_3936)" stroke-width="0.7698" stroke-miterlimit="10"/>
<path d="M236.887 -12.4228C236.887 -3.04257 229.282 4.43626 220.028 4.43626C210.648 4.43626 203.169 -3.16933 203.169 -12.4228C203.169 -21.8031 210.775 -29.2819 220.028 -29.2819C229.408 -29.4087 236.887 -21.8031 236.887 -12.4228Z" fill="url(#paint9_linear_1001_3936)"/>
<path opacity="0.3" d="M220.028 4.43595C229.339 4.43595 236.887 -3.1121 236.887 -12.4231C236.887 -21.7341 229.339 -29.2822 220.028 -29.2822C210.717 -29.2822 203.169 -21.7341 203.169 -12.4231C203.169 -3.1121 210.717 4.43595 220.028 4.43595Z" stroke="url(#paint10_linear_1001_3936)" stroke-width="1.2752" stroke-miterlimit="10"/>
<path d="M240.816 25.4785C240.816 27.7601 241.704 29.915 242.971 31.5629C245.253 26.746 247.028 21.6756 248.295 16.3517C243.985 17.239 240.816 21.0419 240.816 25.4785Z" fill="#302B84"/>
<path d="M111.521 21.4221C117.332 21.4221 122.042 16.7117 122.042 10.901C122.042 5.09041 117.332 0.379974 111.521 0.379974C105.71 0.379974 101 5.09041 101 10.901C101 16.7117 105.71 21.4221 111.521 21.4221Z" fill="url(#paint11_linear_1001_3936)"/>
<path opacity="0.3" d="M104.042 18.2531C99.9859 14.1968 99.9859 7.47854 104.042 3.42222C108.099 -0.634106 114.817 -0.634106 118.873 3.42222C122.929 7.47854 122.929 14.1968 118.873 18.2531C114.817 22.4362 108.225 22.4362 104.042 18.2531Z" stroke="url(#paint12_linear_1001_3936)" stroke-width="0.7914" stroke-miterlimit="10"/>
<path opacity="0.62" d="M713 39C713 39.6 712.25 40 711.5 40C710.6 40 710 39.5 710 39C710 38.4 710.75 38 711.5 38C712.4 38 713 38.4 713 39Z" fill="white"/>
<path opacity="0.75" d="M925 30.5C925 31.8158 923.947 33 922.5 33C921.184 33 920 31.9474 920 30.5C920 29.1842 921.053 28 922.5 28C923.947 28.1316 925 29.1842 925 30.5Z" fill="white"/>
<path d="M443.848 45.7696L393 100.477L458.1 133.064L477.548 64.6983L443.848 45.7696Z" fill="url(#paint13_linear_1001_3936)"/>
<path d="M469.605 61.6549C468.566 63.4364 462.85 62.1002 456.838 58.6114C450.825 55.1226 446.817 50.8173 447.856 49.0358C448.153 48.4419 448.969 48.2192 450.083 48.2192C452.532 48.2935 456.467 49.7038 460.623 52.0792C464.78 54.4546 467.898 57.2753 469.16 59.3537C469.754 60.3187 469.902 61.061 469.605 61.6549Z" fill="#B4AEEB"/>
<path d="M489.722 65.4404C487.643 68.9292 473.688 64.5496 458.397 55.7163C443.105 46.8829 432.416 36.7876 434.495 33.2988C434.94 32.4823 436.054 32.1111 437.612 32.1111C442.957 32.0369 454.017 36.1938 465.82 43.0972C478.587 50.5202 488.089 58.7597 489.722 63.2877C490.093 64.1043 490.093 64.8466 489.722 65.4404Z" fill="url(#paint14_linear_1001_3936)"/>
<path d="M489.722 65.4404C487.643 68.9292 473.688 64.5497 458.397 55.7163C443.105 46.8829 432.416 36.7877 434.495 33.2989C434.94 32.4823 436.054 32.1112 437.612 32.1112C437.538 32.3339 437.241 32.6308 437.39 33.67C437.315 34.1896 438.355 36.6392 443.254 41.093C447.633 45.0272 453.794 49.4068 460.624 53.4152C467.453 57.4236 474.356 60.6155 479.923 62.4712C483.932 63.8074 486.456 64.1043 487.792 64.1043C488.46 64.1043 489.054 63.8074 489.499 63.362C489.573 63.2878 489.573 63.2878 489.648 63.2135C490.093 64.1043 490.093 64.8466 489.722 65.4404Z" fill="url(#paint15_linear_1001_3936)"/>
<path d="M478.587 48.2934L454.611 34.7836C455.279 33.7444 456.244 33.5959 457.432 33.0021C460.92 31.2948 466.265 31.7402 471.09 34.5609C475.915 37.3816 478.958 41.7612 479.181 45.6212C479.255 46.8088 479.033 47.2542 478.587 48.2934Z" fill="url(#paint16_linear_1001_3936)"/>
<path d="M481.408 58.0918C481.037 58.6114 480.443 58.8341 479.998 58.6114L475.247 55.7907L449.712 40.8704L445.332 38.3466C444.887 38.0497 444.813 37.3074 445.332 36.7878L446.074 35.897C446.297 35.6743 446.52 35.5259 446.742 35.4516L454.091 33.8186C454.908 33.5959 455.724 33.7444 456.392 34.1155L478.736 47.18C479.329 47.5511 479.478 48.7388 479.626 49.5553L481.556 57.1268C481.705 57.4237 481.631 57.7949 481.408 58.0918Z" fill="url(#paint17_linear_1001_3936)"/>
<path d="M451.271 36.6393C450.974 37.0847 450.38 37.1589 450.009 36.862C449.563 36.5651 449.489 35.9712 449.86 35.6001C450.157 35.1547 450.751 35.0805 451.122 35.3774C451.493 35.6743 451.567 36.1939 451.271 36.6393Z" fill="url(#paint18_linear_1001_3936)"/>
<path d="M455.724 39.757C455.427 40.2023 454.834 40.3508 454.462 40.0539C454.017 39.757 453.943 39.1631 454.24 38.792C454.537 38.3466 455.13 38.2724 455.502 38.495C455.947 38.7177 456.021 39.3116 455.724 39.757Z" fill="url(#paint19_linear_1001_3936)"/>
<path d="M460.252 42.7261C459.955 43.1715 459.436 43.32 458.99 43.0231C458.545 42.7261 458.471 42.2065 458.768 41.7611C459.064 41.3158 459.658 41.1673 460.029 41.4642C460.475 41.6869 460.549 42.2808 460.252 42.7261Z" fill="url(#paint20_linear_1001_3936)"/>
<path d="M464.929 45.5469C464.632 45.9923 464.112 46.1408 463.667 45.9181C463.222 45.6212 463.147 45.1015 463.37 44.6562C463.667 44.2108 464.187 44.0623 464.632 44.285C465.003 44.5077 465.152 45.1015 464.929 45.5469Z" fill="url(#paint21_linear_1001_3936)"/>
<path d="M469.605 48.2192C469.382 48.6646 468.788 48.8873 468.343 48.5903C467.898 48.3677 467.749 47.7738 468.046 47.3284C468.269 46.8831 468.863 46.7346 469.308 46.9573C469.679 47.2542 469.828 47.7738 469.605 48.2192Z" fill="url(#paint22_linear_1001_3936)"/>
<path d="M474.43 50.743C474.208 51.1884 473.614 51.4111 473.168 51.1884C472.723 50.9657 472.574 50.3719 472.797 49.9265C473.02 49.4811 473.614 49.2584 474.059 49.4811C474.504 49.7038 474.653 50.2977 474.43 50.743Z" fill="url(#paint23_linear_1001_3936)"/>
<path d="M479.329 53.0441C479.107 53.4895 478.587 53.7864 478.142 53.5637C477.696 53.3411 477.474 52.8214 477.696 52.3018C477.919 51.8565 478.439 51.6338 478.884 51.7822C479.329 52.0049 479.552 52.5245 479.329 53.0441Z" fill="url(#paint24_linear_1001_3936)"/>
<path d="M447.93 49.0357L421.504 83.4784L453.572 102.407L469.605 61.6548L447.93 49.0357Z" fill="url(#paint25_linear_1001_3936)"/>
<path opacity="0.74" d="M1497.96 19.7708C1497.96 22.4213 1495.84 24.5417 1493.18 24.5417C1490.53 24.5417 1488.41 22.4213 1488.41 19.7708C1488.41 17.1203 1490.53 15 1493.18 15C1495.84 15 1497.96 17.1203 1497.96 19.7708Z" fill="white"/>
<defs>
<linearGradient id="paint0_linear_1001_3936" x1="802.223" y1="489.681" x2="973.022" y2="-96.4772" gradientUnits="userSpaceOnUse">
<stop offset="0.00526316" stop-color="white"/>
<stop offset="0.9895" stop-color="white" stop-opacity="0"/>
</linearGradient>
<linearGradient id="paint1_linear_1001_3936" x1="242.503" y1="122.696" x2="166.678" y2="-21.1264" gradientUnits="userSpaceOnUse">
<stop offset="0.00526316" stop-color="#292EF9"/>
<stop offset="0.9895" stop-color="#9181FA"/>
</linearGradient>
<linearGradient id="paint2_linear_1001_3936" x1="176.694" y1="-56.657" x2="178.915" y2="68.7856" gradientUnits="userSpaceOnUse">
<stop offset="0.00526316" stop-color="#292EF9"/>
<stop offset="0.9895" stop-color="#9181FA"/>
</linearGradient>
<linearGradient id="paint3_linear_1001_3936" x1="172.226" y1="58.8535" x2="195.231" y2="37.2012" gradientUnits="userSpaceOnUse">
<stop offset="0.00526316" stop-color="#292EF9"/>
<stop offset="0.9895" stop-color="#9181FA"/>
</linearGradient>
<linearGradient id="paint4_linear_1001_3936" x1="188.911" y1="98.6388" x2="172.768" y2="63.4167" gradientUnits="userSpaceOnUse">
<stop offset="0.00526316" stop-color="#292EF9"/>
<stop offset="0.9895" stop-color="#9181FA"/>
</linearGradient>
<linearGradient id="paint5_linear_1001_3936" x1="168.26" y1="27.9209" x2="139.45" y2="23.3801" gradientUnits="userSpaceOnUse">
<stop offset="0.00526316" stop-color="#292EF9"/>
<stop offset="0.1997" stop-color="#4C4AF9"/>
<stop offset="0.4063" stop-color="#6A62FA"/>
<stop offset="0.6098" stop-color="#8073FA"/>
<stop offset="0.8066" stop-color="#8D7EFA"/>
<stop offset="0.9895" stop-color="#9181FA"/>
</linearGradient>
<linearGradient id="paint6_linear_1001_3936" x1="160.589" y1="18.7169" x2="145.531" y2="33.7748" gradientUnits="userSpaceOnUse">
<stop offset="0.00526316" stop-color="white"/>
<stop offset="0.9895" stop-color="white" stop-opacity="0"/>
</linearGradient>
<linearGradient id="paint7_linear_1001_3936" x1="219.901" y1="35.0152" x2="197.924" y2="22.7536" gradientUnits="userSpaceOnUse">
<stop offset="0.00526316" stop-color="#292EF9"/>
<stop offset="0.1997" stop-color="#4C4AF9"/>
<stop offset="0.4063" stop-color="#6A62FA"/>
<stop offset="0.6098" stop-color="#8073FA"/>
<stop offset="0.8066" stop-color="#8D7EFA"/>
<stop offset="0.9895" stop-color="#9181FA"/>
</linearGradient>
<linearGradient id="paint8_linear_1001_3936" x1="208.008" y1="18.6568" x2="211.097" y2="39.8261" gradientUnits="userSpaceOnUse">
<stop offset="0.00526316" stop-color="white"/>
<stop offset="0.9895" stop-color="white" stop-opacity="0"/>
</linearGradient>
<linearGradient id="paint9_linear_1001_3936" x1="244.162" y1="-8.65096" x2="198.403" y2="-15.8628" gradientUnits="userSpaceOnUse">
<stop offset="0.00526316" stop-color="#292EF9"/>
<stop offset="0.1997" stop-color="#4C4AF9"/>
<stop offset="0.4063" stop-color="#6A62FA"/>
<stop offset="0.6098" stop-color="#8073FA"/>
<stop offset="0.8066" stop-color="#8D7EFA"/>
<stop offset="0.9895" stop-color="#9181FA"/>
</linearGradient>
<linearGradient id="paint10_linear_1001_3936" x1="232.549" y1="-24.9854" x2="207.49" y2="0.0730953" gradientUnits="userSpaceOnUse">
<stop offset="0.00526316" stop-color="white"/>
<stop offset="0.9895" stop-color="white" stop-opacity="0"/>
</linearGradient>
<linearGradient id="paint11_linear_1001_3936" x1="126.47" y1="13.2282" x2="98.0715" y2="8.75245" gradientUnits="userSpaceOnUse">
<stop offset="0.00526316" stop-color="#292EF9"/>
<stop offset="0.1997" stop-color="#4C4AF9"/>
<stop offset="0.4063" stop-color="#6A62FA"/>
<stop offset="0.6098" stop-color="#8073FA"/>
<stop offset="0.8066" stop-color="#8D7EFA"/>
<stop offset="0.9895" stop-color="#9181FA"/>
</linearGradient>
<linearGradient id="paint12_linear_1001_3936" x1="119.263" y1="3.091" x2="103.711" y2="18.643" gradientUnits="userSpaceOnUse">
<stop offset="0.00526316" stop-color="white"/>
<stop offset="0.9895" stop-color="white" stop-opacity="0"/>
</linearGradient>
<linearGradient id="paint13_linear_1001_3936" x1="505.631" y1="-6.24274" x2="446.995" y2="83.8348" gradientUnits="userSpaceOnUse">
<stop offset="0.00526316" stop-color="white"/>
<stop offset="0.9895" stop-color="white" stop-opacity="0"/>
</linearGradient>
<linearGradient id="paint14_linear_1001_3936" x1="466.635" y1="42.1553" x2="461.043" y2="51.0413" gradientUnits="userSpaceOnUse">
<stop offset="0.00526316" stop-color="#292EF9"/>
<stop offset="0.9895" stop-color="#9181FA"/>
</linearGradient>
<linearGradient id="paint15_linear_1001_3936" x1="462.166" y1="66.7026" x2="462.069" y2="31.9689" gradientUnits="userSpaceOnUse">
<stop offset="0.00526316" stop-color="#292EF9"/>
<stop offset="0.9895" stop-color="#9181FA"/>
</linearGradient>
<linearGradient id="paint16_linear_1001_3936" x1="456.774" y1="31.1293" x2="480.534" y2="44.9689" gradientUnits="userSpaceOnUse">
<stop offset="0.00526316" stop-color="#DDDFFD"/>
<stop offset="0.9895" stop-color="#9181FA"/>
</linearGradient>
<linearGradient id="paint17_linear_1001_3936" x1="462.431" y1="49.1457" x2="468.722" y2="37.3622" gradientUnits="userSpaceOnUse">
<stop offset="0.00526316" stop-color="#292EF9"/>
<stop offset="0.9895" stop-color="#9181FA"/>
</linearGradient>
<linearGradient id="paint18_linear_1001_3936" x1="449.2" y1="40.0019" x2="450.938" y2="34.8729" gradientUnits="userSpaceOnUse">
<stop offset="0.00526316" stop-color="white"/>
<stop offset="0.9895" stop-color="white" stop-opacity="0"/>
</linearGradient>
<linearGradient id="paint19_linear_1001_3936" x1="453.603" y1="41.5817" x2="455.594" y2="38.1625" gradientUnits="userSpaceOnUse">
<stop offset="0.00526316" stop-color="white"/>
<stop offset="0.9895" stop-color="white" stop-opacity="0"/>
</linearGradient>
<linearGradient id="paint20_linear_1001_3936" x1="457.448" y1="44.3548" x2="460.341" y2="41.355" gradientUnits="userSpaceOnUse">
<stop offset="0.00526316" stop-color="white"/>
<stop offset="0.9895" stop-color="white" stop-opacity="0"/>
</linearGradient>
<linearGradient id="paint21_linear_1001_3936" x1="463.034" y1="47.4378" x2="464.624" y2="43.9929" gradientUnits="userSpaceOnUse">
<stop offset="0.00526316" stop-color="white"/>
<stop offset="0.9895" stop-color="white" stop-opacity="0"/>
</linearGradient>
<linearGradient id="paint22_linear_1001_3936" x1="467.894" y1="49.6707" x2="469.096" y2="47.2488" gradientUnits="userSpaceOnUse">
<stop offset="0.00526316" stop-color="white"/>
<stop offset="0.9895" stop-color="white" stop-opacity="0"/>
</linearGradient>
<linearGradient id="paint23_linear_1001_3936" x1="472.271" y1="52.6634" x2="473.945" y2="49.7882" gradientUnits="userSpaceOnUse">
<stop offset="0.00526316" stop-color="white"/>
<stop offset="0.9895" stop-color="white" stop-opacity="0"/>
</linearGradient>
<linearGradient id="paint24_linear_1001_3936" x1="476.733" y1="57.336" x2="478.957" y2="51.553" gradientUnits="userSpaceOnUse">
<stop offset="0.00526316" stop-color="white"/>
<stop offset="0.9895" stop-color="white" stop-opacity="0"/>
</linearGradient>
<linearGradient id="paint25_linear_1001_3936" x1="489.489" y1="3.00133" x2="443.892" y2="81.9043" gradientUnits="userSpaceOnUse">
<stop offset="0.00526316" stop-color="white"/>
<stop offset="0.9895" stop-color="white" stop-opacity="0"/>
</linearGradient>
</defs>
</svg>
