<svg width="19" height="18" viewBox="0 0 19 18" fill="none" xmlns="http://www.w3.org/2000/svg">
<path d="M11.0348 1.18168C10.5695 -0.393895 8.33336 -0.393894 7.86804 1.18168L7.7552 1.56378C7.45788 2.57051 6.30572 3.04681 5.38221 2.54476L5.0317 2.35422C3.58636 1.56849 2.00519 3.14654 2.79247 4.58902L2.9834 4.93884C3.48644 5.86052 3.0092 7.0104 2.00047 7.30713L1.61762 7.41976C0.0389187 7.88416 0.0389193 10.1158 1.61762 10.5802L2.00048 10.6929C3.0092 10.9896 3.48643 12.1395 2.9834 13.0612L2.79247 13.411C2.00519 14.8535 3.58636 16.4315 5.0317 15.6458L5.38221 15.4552C6.30572 14.9532 7.45788 15.4295 7.7552 16.4362L7.86804 16.8183C8.33336 18.3939 10.5695 18.3939 11.0348 16.8183L11.1476 16.4362C11.445 15.4295 12.5971 14.9532 13.5206 15.4552L13.8711 15.6458C15.3165 16.4315 16.8976 14.8535 16.1104 13.411L15.9194 13.0612C15.4164 12.1395 15.8936 10.9896 16.9024 10.6929L17.2852 10.5802C18.8639 10.1158 18.8639 7.88415 17.2852 7.41976L16.9024 7.30713C15.8936 7.0104 15.4164 5.86052 15.9194 4.93884L16.1104 4.58902C16.8976 3.14654 15.3165 1.56849 13.8711 2.35422L13.5206 2.54476C12.5971 3.04681 11.445 2.57051 11.1476 1.56378L11.0348 1.18168ZM9.45142 12.2949C7.62808 12.2949 6.14998 10.8197 6.14998 9C6.14998 7.18027 7.62808 5.70508 9.45142 5.70508C11.2748 5.70508 12.7529 7.18027 12.7529 9C12.7529 10.8197 11.2748 12.2949 9.45142 12.2949Z" fill="white"/>
</svg>
