<svg width="40" height="40" viewBox="0 0 40 40" fill="none" xmlns="http://www.w3.org/2000/svg">
<mask id="mask0_1018_731" style="mask-type:alpha" maskUnits="userSpaceOnUse" x="0" y="0" width="40" height="40">
<path d="M30 0H10C4.47715 0 0 4.47715 0 10V30C0 35.5228 4.47715 40 10 40H30C35.5228 40 40 35.5228 40 30V10C40 4.47715 35.5228 0 30 0Z" fill="white"/>
</mask>
<g mask="url(#mask0_1018_731)">
<path d="M30 0H10C4.47715 0 0 4.47715 0 10V30C0 35.5228 4.47715 40 10 40H30C35.5228 40 40 35.5228 40 30V10C40 4.47715 35.5228 0 30 0Z" fill="#2E8DFD"/>
<path d="M29.5559 31.6528H28.8815C28.3206 31.6528 27.8618 31.1941 27.8618 30.6331V10.4803C27.8618 9.91938 28.3206 9.46063 28.8815 9.46063H29.5559C30.1168 9.46063 30.5756 9.91938 30.5756 10.4803V30.6331C30.5759 31.1938 30.1168 31.6528 29.5559 31.6528Z" fill="#2A5083"/>
<path d="M10.7038 31.6528H10.0295C9.46852 31.6528 9.00977 31.1941 9.00977 30.6331V10.4803C9.00977 9.91938 9.46852 9.46063 10.0295 9.46063H10.7038C11.2648 9.46063 11.7235 9.91938 11.7235 10.4803V30.6331C11.7235 31.1938 11.2648 31.6528 10.7038 31.6528Z" fill="#2A5083"/>
<path d="M10.5104 21.3472H10.2222C9.55234 21.3472 9.00928 21.8902 9.00928 22.5602C9.00928 23.2301 9.55234 23.7731 10.2222 23.7731H10.5104C11.1803 23.7731 11.7233 23.2301 11.7233 22.5602C11.7233 21.8902 11.1803 21.3472 10.5104 21.3472Z" fill="#153A56"/>
<path d="M10.3666 22.1175C8.23191 22.1175 6.48535 20.3709 6.48535 18.2362C6.48535 16.1016 8.23191 14.355 10.3666 14.355C12.5013 14.355 14.2479 16.1016 14.2479 18.2362C14.2479 20.3709 12.5013 22.1175 10.3666 22.1175Z" fill="white"/>
<path opacity="0.2" d="M11.8814 19.0253H8.85113C8.57895 19.0253 8.35645 18.8028 8.35645 18.5306V18.2031C8.35645 17.9309 8.57895 17.7084 8.85113 17.7084H11.8814C12.1536 17.7084 12.3761 17.9309 12.3761 18.2031V18.5303C12.3764 18.8025 12.1536 19.0253 11.8814 19.0253Z" fill="#2A5083"/>
<path d="M29.3629 26.6584H29.0748C28.4049 26.6584 27.8618 27.2015 27.8618 27.8714C27.8618 28.5413 28.4049 29.0844 29.0748 29.0844H29.3629C30.0328 29.0844 30.5759 28.5413 30.5759 27.8714C30.5759 27.2015 30.0328 26.6584 29.3629 26.6584Z" fill="#153A56"/>
<path d="M29.2187 27.4291C27.084 27.4291 25.3374 25.6825 25.3374 23.5478C25.3374 21.4131 27.084 19.6666 29.2187 19.6666C31.3533 19.6666 33.0999 21.4131 33.0999 23.5478C33.0999 25.6822 31.3533 27.4291 29.2187 27.4291Z" fill="white"/>
<path opacity="0.2" d="M30.734 24.3366H27.7037C27.4315 24.3366 27.209 24.1141 27.209 23.8419V23.5147C27.209 23.2425 27.4318 23.02 27.7037 23.02H30.734C31.0062 23.02 31.2287 23.2428 31.2287 23.5147V23.8419C31.2287 24.1141 31.0062 24.3366 30.734 24.3366Z" fill="#2A5083"/>
<path d="M20.1296 31.6528H19.4552C18.8943 31.6528 18.4355 31.1941 18.4355 30.6331V10.4803C18.4355 9.91938 18.8943 9.46063 19.4552 9.46063H20.1296C20.6905 9.46063 21.1493 9.91938 21.1493 10.4803V30.6331C21.1493 31.1938 20.6905 31.6528 20.1296 31.6528Z" fill="#2A5083"/>
<path d="M19.9303 12.5172H19.6422C18.9723 12.5172 18.4292 13.0602 18.4292 13.7302C18.4292 14.4001 18.9723 14.9431 19.6422 14.9431H19.9303C20.6002 14.9431 21.1433 14.4001 21.1433 13.7302C21.1433 13.0602 20.6002 12.5172 19.9303 12.5172Z" fill="#153A56"/>
<path d="M19.786 13.2878C17.6513 13.2878 15.9048 11.5413 15.9048 9.40656C15.9048 7.27188 17.6513 5.52531 19.786 5.52531C21.9207 5.52531 23.6673 7.27188 23.6673 9.40656C23.6673 11.5413 21.9207 13.2878 19.786 13.2878Z" fill="white"/>
<path opacity="0.2" d="M21.3014 10.1956H18.2711C17.9989 10.1956 17.7764 9.97312 17.7764 9.70093V9.37375C17.7764 9.10156 17.9989 8.87906 18.2711 8.87906H21.3014C21.5736 8.87906 21.7961 9.10156 21.7961 9.37375V9.70093C21.7961 9.97281 21.5736 10.1956 21.3014 10.1956Z" fill="#2A5083"/>
</g>
</svg>
