<svg width="40" height="40" viewBox="0 0 40 40" fill="none" xmlns="http://www.w3.org/2000/svg">
<mask id="mask0_126_901" style="mask-type:alpha" maskUnits="userSpaceOnUse" x="0" y="0" width="40" height="40">
<path d="M30 0H10C4.47715 0 0 4.47715 0 10V30C0 35.5228 4.47715 40 10 40H30C35.5228 40 40 35.5228 40 30V10C40 4.47715 35.5228 0 30 0Z" fill="white"/>
</mask>
<g mask="url(#mask0_126_901)">
<path d="M30 0H10C4.47715 0 0 4.47715 0 10V30C0 35.5228 4.47715 40 10 40H30C35.5228 40 40 35.5228 40 30V10C40 4.47715 35.5228 0 30 0Z" fill="url(#paint0_linear_126_901)"/>
<path d="M13.5 34C12.675 34 12 33.4255 12 32.7233V7.27666C12 6.5745 12.675 6 13.5 6C14.325 6 15 6.5745 15 7.27666V32.7233C15 33.4255 14.325 34 13.5 34Z" fill="#2A5083"/>
<path d="M26.5 34C25.675 34 25 33.4255 25 32.7233V7.27666C25 6.5745 25.675 6 26.5 6C27.325 6 28 6.5745 28 7.27666V32.7233C28 33.4255 27.325 34 26.5 34Z" fill="#2A5083"/>
<path d="M12 29.8729V29.1271C12 28.5071 12.4446 28 12.9881 28H27.0119C27.5554 28 28 28.5071 28 29.1271V29.8729C28 30.4929 27.5554 31 27.0119 31H12.9881C12.4446 30.9996 12 30.4925 12 29.8729Z" fill="#2A5083"/>
<path d="M31.8704 9.48391C31.8021 8.64628 31.0793 8 30.2105 8H22.2204H17.7799H9.79009C8.92127 8 8.19846 8.64599 8.13018 9.48391L7.00528 23.2628C6.92876 24.1992 7.69394 25 8.66519 25H17.7799H22.2204H31.3348C32.3061 25 33.0712 24.1992 32.9947 23.2628L31.8704 9.48391Z" fill="white"/>
<path d="M10.783 23H29.2155C29.9129 23 30.2624 22.1188 29.7691 21.6034L25.9329 17.5953C25.6323 17.2812 25.1469 17.2751 24.8392 17.5815L22.1803 20.2271C21.8791 20.5268 21.4061 20.5283 21.1034 20.2302L16.0158 15.2226C15.7164 14.9279 15.2492 14.9254 14.9471 15.2174L10.3594 19.6518C10.2108 19.7953 10.1211 19.9936 10.1093 20.2047L10.0014 22.1342C9.97491 22.6038 10.3323 23 10.783 23Z" fill="#BABEC6"/>
<path d="M23.5 15C24.8807 15 26 13.8807 26 12.5C26 11.1193 24.8807 10 23.5 10C22.1193 10 21 11.1193 21 12.5C21 13.8807 22.1193 15 23.5 15Z" fill="#FFAB00"/>
<path d="M15 25H12V28H15V25Z" fill="#153A56"/>
<path d="M28 25H25V28H28V25Z" fill="#153A56"/>
</g>
<defs>
<linearGradient id="paint0_linear_126_901" x1="-2.04891e-07" y1="20.0001" x2="40" y2="20.0001" gradientUnits="userSpaceOnUse">
<stop stop-color="#7F28D9"/>
<stop offset="1" stop-color="#7427CC"/>
</linearGradient>
</defs>
</svg>
