<svg width="14" height="19" viewBox="0 0 14 19" fill="none" xmlns="http://www.w3.org/2000/svg">
    <path d="M8.50838 0H2.33333C1.04467 0 0 1.06332 0 2.375V16.625C0 17.9367 1.04467 19 2.33333 19H11.6667C12.9553 19 14 17.9367 14 16.625V5.58969C14 5.27475 13.8771 4.9727 13.6583 4.75L9.33333 0.347811C9.11454 0.125111 8.81779 0 8.50838 0ZM8.75 4.15625V1.78125L12.25 5.34375H9.91667C9.27233 5.34375 8.75 4.81209 8.75 4.15625ZM4.53148 7.93241L7.00001 10.9475L9.46855 7.93241C9.6748 7.68049 10.0426 7.64645 10.2901 7.85638C10.5376 8.06631 10.5711 8.44071 10.3648 8.69262L7.75934 11.875L10.3648 15.0574C10.5711 15.3093 10.5376 15.6837 10.2901 15.8936C10.0426 16.1036 9.6748 16.0695 9.46855 15.8176L7.00001 12.8025L4.53148 15.8176C4.32523 16.0695 3.9574 16.1036 3.70991 15.8936C3.46241 15.6837 3.42897 15.3093 3.63522 15.0574L6.24068 11.875L3.63522 8.69262C3.42897 8.44071 3.46241 8.06631 3.70991 7.85638C3.9574 7.64645 4.32523 7.68049 4.53148 7.93241Z"
          fill="url(#paint0_linear_11252_3046)"/>
    <defs>
        <linearGradient id="paint0_linear_11252_3046" x1="3.91155e-08" y1="9.50001" x2="14" y2="9.50001"
                        gradientUnits="userSpaceOnUse">
            <stop stop-color="#2E8EFE"/>
            <stop offset="1" stop-color="#2675F6"/>
        </linearGradient>
    </defs>
</svg>
