<svg width="16" height="20" viewBox="0 0 16 20" fill="none" xmlns="http://www.w3.org/2000/svg">
    <path fill-rule="evenodd" clip-rule="evenodd"
          d="M3.30749 5.75817L3.65055 8.84573L2.95633 8.90116C1.98823 8.97844 1.19773 9.70617 1.0408 10.6646C0.679109 12.8735 0.679108 15.1265 1.0408 17.3354C1.19773 18.2938 1.98823 19.0215 2.95633 19.0988L4.45246 19.2183C6.8146 19.4068 9.18802 19.4068 11.5502 19.2183L13.0463 19.0988C14.0144 19.0215 14.8049 18.2938 14.9618 17.3354C15.3235 15.1265 15.3235 12.8735 14.9618 10.6646C14.8049 9.70617 14.0144 8.97844 13.0463 8.90116L12.352 8.84573L12.695 5.75817C12.7355 5.39419 12.7355 5.02685 12.695 4.66288L12.6723 4.45798C12.4308 2.28459 10.7222 0.564932 8.55038 0.309427C8.18556 0.266507 7.81696 0.266507 7.45213 0.309427C5.28035 0.564932 3.57175 2.28459 3.33026 4.45798L3.30749 4.66288C3.26705 5.02685 3.26705 5.39419 3.30749 5.75817ZM8.37512 1.79915C8.12674 1.76993 7.87578 1.76993 7.6274 1.79915C6.14877 1.97311 4.9855 3.14391 4.82108 4.62363L4.79832 4.82852C4.77011 5.08241 4.77011 5.33864 4.79832 5.59252L5.14712 8.73172C7.04792 8.60981 8.95459 8.60981 10.8554 8.73171L11.2042 5.59252C11.2324 5.33864 11.2324 5.08241 11.2042 4.82852L11.1814 4.62363C11.017 3.14391 9.85375 1.97311 8.37512 1.79915ZM8.00128 12.5C7.17285 12.5 6.50128 13.1716 6.50128 14C6.50128 14.8284 7.17285 15.5 8.00128 15.5C8.82971 15.5 9.50128 14.8284 9.50128 14C9.50128 13.1716 8.82971 12.5 8.00128 12.5Z"
          fill="#DB5552"/>
</svg>
