<svg width="34" height="34" viewBox="0 0 34 34" fill="none" xmlns="http://www.w3.org/2000/svg">
    <mask id="mask0_134_1602" style="mask-type:alpha" maskUnits="userSpaceOnUse" x="0" y="0" width="34" height="34">
        <path d="M34 0H0V34H34V0Z" fill="white"/>
    </mask>
    <g mask="url(#mask0_134_1602)">
        <path d="M0 17C0 26.3888 7.61116 34 17 34C26.3888 34 34 26.3888 34 17C34 7.61116 26.3888 0 17 0C7.61116 0 0 7.61116 0 17Z"
              fill="#FFC400"/>
        <path d="M29.9272 9.09818H17.5273V24.2887C17.5273 25.0713 18.1617 25.7053 18.9439 25.7053H29.9272L27.1974 17.4016L29.9272 9.09818Z"
              fill="#DE350A"/>
        <path d="M9 7.08793H19.6447C20.4272 7.08793 21.0612 7.72224 21.0612 8.50451V23.1697H9V7.08793Z" fill="#FF5630"/>
        <path opacity="0.3"
              d="M17.5273 23.1697V24.2887C17.5273 25.0713 18.1617 25.7053 18.9439 25.7053H19.3944L21.0604 23.1694H17.5273V23.1697Z"
              fill="#BF2601"/>
        <path opacity="0.2" d="M10.2078 7.08793H9V23.1697H10.2078V7.08793Z" fill="#D32F06"/>
        <path d="M7.90105 5.38208C7.21414 5.38208 6.65234 5.94414 6.65234 6.63078V34.2024C7.43408 34.8032 8.2692 33.7429 9.15002 34.2024V6.63105C9.14975 5.94414 8.58769 5.38208 7.90105 5.38208Z"
              fill="#C9E6F4"/>
        <path d="M6.65234 6.63105V34.2141C6.89566 34.4011 7.14322 34.0401 7.39663 34.2141V6.63105C7.39663 6.07456 7.76797 5.60574 8.27319 5.44556C8.15472 5.40811 8.03147 5.38208 7.90105 5.38208C7.21441 5.38208 6.65234 5.94414 6.65234 6.63105Z"
              fill="white"/>
    </g>
</svg>
