<svg width="25" height="25" viewBox="0 0 25 25" fill="none" xmlns="http://www.w3.org/2000/svg">
<mask id="mask0_100_1497" style="mask-type:alpha" maskUnits="userSpaceOnUse" x="0" y="0" width="25" height="25">
<path d="M25 0H0V25H25V0Z" fill="white"/>
</mask>
<g mask="url(#mask0_100_1497)">
<path d="M25 0H0V25H25V0Z" fill="#2E8DFD"/>
<path d="M22.0053 6.68983H12.8877V17.8594C12.8877 18.4348 13.3541 18.901 13.9293 18.901H22.0053L19.998 12.7953L22.0053 6.68983Z" fill="#DE350A"/>
<path d="M6.61719 5.21172H14.4441C15.0195 5.21172 15.4857 5.67812 15.4857 6.25332V17.0365H6.61719V5.21172Z" fill="#FF5630"/>
<path opacity="0.3" d="M12.8877 17.0365V17.8594C12.8877 18.4348 13.3541 18.901 13.9293 18.901H14.2605L15.4855 17.0363H12.8877V17.0365Z" fill="#BF2601"/>
<path opacity="0.2" d="M7.50527 5.21172H6.61719V17.0365H7.50527V5.21172Z" fill="#D32F06"/>
<path d="M5.80928 3.95741C5.3042 3.95741 4.89111 4.37069 4.89111 4.87558V25.1488C5.46592 25.5906 6.07998 24.8109 6.72764 25.1488V4.87577C6.72744 4.37069 6.31416 3.95741 5.80928 3.95741Z" fill="#C9E6F4"/>
<path d="M4.89111 4.87577V25.1574C5.07002 25.2949 5.25205 25.0295 5.43838 25.1574V4.87577C5.43838 4.46659 5.71143 4.12187 6.08291 4.00409C5.9958 3.97655 5.90518 3.95741 5.80928 3.95741C5.30439 3.95741 4.89111 4.37069 4.89111 4.87577Z" fill="white"/>
</g>
</svg>
