<svg width="25" height="25" viewBox="0 0 25 25" fill="none" xmlns="http://www.w3.org/2000/svg">
<mask id="mask0_100_1511" style="mask-type:alpha" maskUnits="userSpaceOnUse" x="0" y="0" width="25" height="25">
<path d="M25 0H0V25H25V0Z" fill="white"/>
</mask>
<g mask="url(#mask0_100_1511)">
<path d="M25 0H0V25H25V0Z" fill="#2E8DFD"/>
<path d="M25.6445 8.92578C25.293 7.71484 25.918 6.58203 25.2344 5.56641H7.26563C6.54297 5.56641 5.95703 6.15234 5.95703 6.875V8.92578H25.6445Z" fill="#EBF2F9"/>
<path d="M8.32031 7.87111C8.64392 7.87111 8.90625 7.60878 8.90625 7.28517C8.90625 6.96157 8.64392 6.69923 8.32031 6.69923C7.99671 6.69923 7.73438 6.96157 7.73438 7.28517C7.73438 7.60878 7.99671 7.87111 8.32031 7.87111Z" fill="#FF5630"/>
<path d="M10 7.87111C10.3236 7.87111 10.5859 7.60878 10.5859 7.28517C10.5859 6.96157 10.3236 6.69923 10 6.69923C9.6764 6.69923 9.41406 6.96157 9.41406 7.28517C9.41406 7.60878 9.6764 7.87111 10 7.87111Z" fill="#FFC400"/>
<path d="M11.6602 7.87111C11.9838 7.87111 12.2461 7.60878 12.2461 7.28517C12.2461 6.96157 11.9838 6.69923 11.6602 6.69923C11.3366 6.69923 11.0742 6.96157 11.0742 7.28517C11.0742 7.60878 11.3366 7.87111 11.6602 7.87111Z" fill="#00B8D9"/>
<path d="M25.3711 25C25.3711 25 25.7617 10.0195 25.4102 8.86719H9.90234H9.51172H8.10547H7.71484H6.34766H5.95703V26.0352C7.32422 26.9531 25.3711 25 25.3711 25Z" fill="#253858"/>
<path d="M15.6055 13.3203H8.51563C8.08594 13.3203 7.73438 12.9687 7.73438 12.5391C7.73438 12.1094 8.08594 11.7578 8.51563 11.7578H15.625C16.0547 11.7578 16.4063 12.1094 16.4063 12.5391C16.3867 12.9687 16.0352 13.3203 15.6055 13.3203Z" fill="#EBF2F9"/>
<path d="M19.0234 13.3203H18.3008C17.8711 13.3203 17.5195 12.9687 17.5195 12.5391C17.5195 12.1094 17.8711 11.7578 18.3008 11.7578H19.0234C19.4531 11.7578 19.8047 12.1094 19.8047 12.5391C19.8047 12.9687 19.4531 13.3203 19.0234 13.3203Z" fill="#4C9AFF"/>
<path d="M10.8984 16.7383H8.51562C8.08594 16.7383 7.73438 16.3867 7.73438 15.957C7.73438 15.5273 8.08594 15.1758 8.51562 15.1758H10.8984C11.3281 15.1758 11.6797 15.5273 11.6797 15.957C11.6602 16.3867 11.3086 16.7383 10.8984 16.7383Z" fill="#FF5630"/>
<path d="M13.1836 20.1562H8.49609C8.06641 20.1562 7.71484 19.8047 7.71484 19.375C7.71484 18.9453 8.06641 18.5937 8.49609 18.5937H13.1836C13.6133 18.5937 13.9648 18.9453 13.9648 19.375C13.9648 19.8047 13.6133 20.1562 13.1836 20.1562Z" fill="#EBF2F9"/>
<path d="M16.4258 20.1562H15.918C15.4883 20.1562 15.1367 19.8047 15.1367 19.375C15.1367 18.9453 15.4883 18.5937 15.918 18.5937H16.4258C16.8555 18.5937 17.207 18.9453 17.207 19.375C17.207 19.8047 16.8555 20.1562 16.4258 20.1562Z" fill="#FF4E4A"/>
<path d="M20.7813 16.7383H13.6133C13.1836 16.7383 12.832 16.3867 12.832 15.957C12.832 15.5273 13.1836 15.1758 13.6133 15.1758H20.7617C21.1914 15.1758 21.543 15.5273 21.543 15.957C21.5625 16.3867 21.2109 16.7383 20.7813 16.7383Z" fill="#00B8D9"/>
</g>
</svg>
