<svg width="25" height="25" viewBox="0 0 25 25" fill="none" xmlns="http://www.w3.org/2000/svg">
<mask id="mask0_100_1468" style="mask-type:alpha" maskUnits="userSpaceOnUse" x="0" y="0" width="25" height="25">
<path d="M25 0H0V25H25V0Z" fill="white"/>
</mask>
<g mask="url(#mask0_100_1468)">
<path d="M25 0H0V25H25V0Z" fill="#2E8DFD"/>
<path d="M4.9543 12.7527C5.70948 12.7527 6.32168 12.1405 6.32168 11.3854C6.32168 10.6302 5.70948 10.018 4.9543 10.018C4.19911 10.018 3.58691 10.6302 3.58691 11.3854C3.58691 12.1405 4.19911 12.7527 4.9543 12.7527Z" fill="#FFBDAE"/>
<path d="M19.5261 12.7527C20.2813 12.7527 20.8935 12.1405 20.8935 11.3854C20.8935 10.6302 20.2813 10.018 19.5261 10.018C18.7709 10.018 18.1587 10.6302 18.1587 11.3854C18.1587 12.1405 18.7709 12.7527 19.5261 12.7527Z" fill="#FFBDAE"/>
<path d="M12.24 2.08145C8.21621 2.08145 4.9541 5.34356 4.9541 9.36739V11.1875V11.583V13.4031V16.6531V18.4732V18.8688V20.6889H19.526V18.8688V18.4732V16.6531V13.4031V11.583V11.1875V9.36739C19.526 5.34356 16.2641 2.08145 12.24 2.08145Z" fill="white"/>
<path d="M14.823 5.63965H9.65742C7.88437 5.63965 6.43359 7.09043 6.43359 8.86348V9.18809V9.99394V10.8291C6.43359 14.0359 9.0332 16.6357 12.2402 16.6357C15.4471 16.6357 18.0469 14.0361 18.0469 10.8291V9.99394V9.18809V8.86328C18.0469 7.09023 16.5961 5.63965 14.823 5.63965Z" fill="#FFBDAD"/>
<path d="M9.86943 14.2059C9.71494 13.5922 9.2458 12.9111 9.2458 12.9111L9.24287 12.9123C9.17881 12.8396 9.08799 12.7918 8.9835 12.7918C8.79053 12.7918 8.63408 12.9482 8.63408 13.1412C8.63408 13.1412 8.55283 13.9945 8.71533 14.4822C8.87803 14.9697 9.98623 14.6695 9.86943 14.2059Z" fill="white"/>
<path d="M14.4012 14.2059C14.5556 13.5922 15.0248 12.9111 15.0248 12.9111L15.0277 12.9123C15.0918 12.8396 15.1826 12.7918 15.2871 12.7918C15.4801 12.7918 15.6365 12.9482 15.6365 13.1412C15.6365 13.1412 15.7178 13.9945 15.5553 14.4822C15.3928 14.9697 14.2846 14.6695 14.4012 14.2059Z" fill="white"/>
<path d="M9.01758 8.90625V9.74141C9.01758 10.1561 9.35371 10.4922 9.76836 10.4922C10.183 10.4922 10.5191 10.1561 10.5191 9.74141V8.90625H9.01758Z" fill="#403294"/>
<path d="M14.0752 8.90625V9.74141C14.0752 10.1561 14.4113 10.4922 14.826 10.4922C15.2406 10.4922 15.5768 10.1561 15.5768 9.74141V8.90625H14.0752Z" fill="#403294"/>
<path d="M13.4108 12.4906H11.2532C10.9552 12.4906 10.7114 12.2469 10.7114 11.9488V11.5533C10.7114 11.2553 10.9552 11.0115 11.2532 11.0115H13.4108C13.7089 11.0115 13.9526 11.2553 13.9526 11.5533V11.9488C13.9526 12.2469 13.7089 12.4906 13.4108 12.4906Z" fill="#FF4E4A"/>
<path d="M12.2401 13.3195C10.579 13.3195 9.08975 13.901 8.03174 14.8221C9.08975 15.9369 10.5819 16.6357 12.2401 16.6357H12.2403C13.8987 16.6357 15.3907 15.9369 16.4487 14.8221C15.3907 13.9008 13.9013 13.3195 12.2401 13.3195Z" fill="#FF8F73"/>
<path d="M15.9836 9.51972H8.49648C8.1375 9.51972 7.84375 9.22597 7.84375 8.86698V8.39042C7.84375 8.03144 8.1375 7.73769 8.49648 7.73769H15.9836C16.3426 7.73769 16.6363 8.03144 16.6363 8.39042V8.86698C16.6365 9.22597 16.3428 9.51972 15.9836 9.51972Z" fill="#FF8F73"/>
<path d="M16.9199 2.01797L16.9172 2.01836C16.6074 2.60528 14.7313 3.00977 15.1631 2.45489C15.7186 1.74102 15.4863 0.317777 14.9994 0.957621C14.1729 2.04375 12.2402 2.07911 12.2402 2.07911L12.9455 3.49219C12.9455 3.49219 16.1055 4.10059 16.7652 3.65684C17.4424 3.20157 17.2703 2.33907 17.101 2.01172C16.9879 1.81114 16.9199 2.01797 16.9199 2.01797Z" fill="white"/>
<path d="M22.0705 20.9961C22.0705 20.9961 20.2668 16.9477 17.9689 16.9477H14.6381H10.0305H7.39668C5.2125 16.9477 3.90645 17.9688 3.0293 20.6346C2.15215 23.3004 2.23436 25.1444 2.4416 25.4883C2.64885 25.8321 4.82904 24.8532 12.5033 24.9883C19.6438 25.114 21.3706 27.5516 22.2658 25.8789C23.1611 24.2063 22.0705 20.9961 22.0705 20.9961Z" fill="white"/>
<path d="M12.4705 25.3789C14.876 25.3789 17.1197 26.2578 19.0256 25.0797V22.5156C19.0256 20.4607 17.3443 18.7795 15.2896 18.7795H9.19102C7.13613 18.7795 5.45508 20.4607 5.45508 22.5156V25.1744C7.45449 26.5357 9.86895 25.3789 12.4705 25.3789Z" fill="#FFBDAE"/>
<path d="M9.49463 23.8098C9.95091 23.8098 10.3208 23.4399 10.3208 22.9836C10.3208 22.5273 9.95091 22.1574 9.49463 22.1574C9.03835 22.1574 8.66846 22.5273 8.66846 22.9836C8.66846 23.4399 9.03835 23.8098 9.49463 23.8098Z" fill="#FF8F73"/>
<path d="M14.938 23.8098C15.3943 23.8098 15.7642 23.4399 15.7642 22.9836C15.7642 22.5273 15.3943 22.1574 14.938 22.1574C14.4817 22.1574 14.1118 22.5273 14.1118 22.9836C14.1118 23.4399 14.4817 23.8098 14.938 23.8098Z" fill="#FF8F73"/>
</g>
</svg>
