<svg width="16" height="20" viewBox="0 0 16 20" fill="none" xmlns="http://www.w3.org/2000/svg">
    <path fill-rule="evenodd" clip-rule="evenodd"
          d="M6.53403 1.81144C6.28655 1.8475 6.04414 1.91246 5.81179 2.00497C4.42857 2.55569 3.60796 3.98768 3.83213 5.45953L3.86317 5.66334C3.90163 5.91587 3.96794 6.16337 4.0609 6.4013L4.9758 8.74303C7.16498 8.59416 9.3624 8.60705 11.5502 8.78171L13.0463 8.90115C14.0144 8.97843 14.8049 9.70616 14.9618 10.6646C15.3235 12.8735 15.3235 15.1265 14.9618 17.3354C14.8049 18.2938 14.0144 19.0215 13.0463 19.0988L11.5502 19.2183C9.18802 19.4068 6.8146 19.4068 4.45246 19.2183L2.95633 19.0988C1.98823 19.0215 1.19773 18.2938 1.0408 17.3354C0.679108 15.1265 0.679109 12.8735 1.0408 10.6646C1.19773 9.70616 1.98823 8.97843 2.95633 8.90115L3.41292 8.8647L2.66375 6.94716C2.53048 6.60605 2.43541 6.25123 2.38027 5.88919L2.34923 5.68538C2.01997 3.52354 3.22527 1.42026 5.25693 0.611365C5.59821 0.475483 5.95425 0.380083 6.31775 0.327118C8.48167 0.0118163 10.5771 1.23066 11.3729 3.26749L11.4479 3.45951C11.5812 3.80062 11.6763 4.15544 11.7314 4.51749L11.8727 5.4455C11.9143 5.71849 11.7267 5.9735 11.4537 6.01508L10.9594 6.09037C10.6864 6.13194 10.4314 5.94434 10.3898 5.67135L10.2485 4.74334C10.21 4.4908 10.1437 4.2433 10.0508 4.00537L9.97575 3.81335C9.43396 2.42661 8.0073 1.59678 6.53403 1.81144ZM8.00128 12.5C7.17285 12.5 6.50128 13.1716 6.50128 14C6.50128 14.8284 7.17285 15.5 8.00128 15.5C8.82971 15.5 9.50128 14.8284 9.50128 14C9.50128 13.1716 8.82971 12.5 8.00128 12.5Z"
          fill="#59C252"/>
</svg>
