<svg width="20" height="16" viewBox="0 0 20 16" fill="none" xmlns="http://www.w3.org/2000/svg">
    <path d="M13.8513 7.68816C14.0596 7.79206 14.372 7.79206 14.6845 7.79206C16.5591 7.79206 18.1213 6.23362 18.1213 4.36349C18.1213 2.49336 16.5591 0.934918 14.6845 0.934918C14.5803 0.934918 14.5803 0.934918 14.4762 0.934918C15.1011 1.76609 15.4135 2.80505 15.4135 3.94791C15.4135 5.29855 14.8928 6.6492 13.8513 7.68816Z"
          fill="url(#paint0_linear_240_2608)"/>
    <path d="M16.0383 9.14286H15.3093C16.6632 10.1818 17.4964 11.8442 17.4964 13.7143C17.4964 14.1299 17.3922 14.5455 17.2881 14.961C18.3295 14.7533 18.9544 14.5455 19.371 14.3377C19.7876 14.1299 19.9959 13.6104 19.9959 13.0909C20.1 10.9091 18.2254 9.14286 16.0383 9.14286Z"
          fill="url(#paint1_linear_240_2608)"/>
    <path d="M5.31142 7.79221C5.62386 7.79221 5.83215 7.79221 6.14458 7.68832C5.20728 6.64936 4.58241 5.4026 4.58241 3.84416C4.58241 2.7013 4.89484 1.66234 5.51971 0.831174C5.51971 0.831174 5.41557 0.831174 5.31142 0.831174C3.43681 0.831174 1.87463 2.38962 1.87463 4.25975C1.87463 6.12987 3.33267 7.79221 5.31142 7.79221Z"
          fill="url(#paint2_linear_240_2608)"/>
    <path d="M4.58238 9.14286H3.95751C1.77047 9.14286 0 10.9091 0 13.0909C0 13.6104 0.20829 14.1299 0.62487 14.3377C1.04145 14.5455 1.66632 14.8571 2.70777 14.961C2.60363 14.5455 2.49948 14.1299 2.49948 13.7143C2.49948 11.9481 3.2285 10.2857 4.58238 9.14286Z"
          fill="url(#paint3_linear_240_2608)"/>
    <path d="M7.60264 6.8571C8.22751 7.37658 9.06067 7.68827 9.99798 7.68827C10.9353 7.68827 11.7684 7.37658 12.3933 6.8571C13.3306 6.12982 13.8513 5.09086 13.8513 3.84411C13.8513 2.90905 13.5389 1.97398 12.914 1.3506C12.185 0.519435 11.1436 -4.57764e-05 9.99798 -4.57764e-05C8.85238 -4.57764e-05 7.70679 0.519435 7.08192 1.3506C6.45705 1.97398 6.04047 2.90905 6.04047 3.84411C6.04047 5.09086 6.66534 6.12982 7.60264 6.8571Z"
          fill="url(#paint4_linear_240_2608)"/>
    <path d="M12.0807 9.3506C11.8724 9.3506 11.6642 9.3506 11.4559 9.3506H8.33151C8.12322 9.3506 7.91493 9.3506 7.70664 9.3506C5.51959 9.66229 3.85327 11.5324 3.85327 13.7142C3.85327 14.3376 4.16571 14.8571 4.58229 15.0649C5.3113 15.4805 6.76933 16 9.78954 16C12.8097 16 14.2678 15.4805 14.9968 15.0649C15.5175 14.7532 15.7258 14.2337 15.7258 13.7142C16.0382 11.5324 14.2678 9.66229 12.0807 9.3506Z"
          fill="url(#paint5_linear_240_2608)"/>
    <defs>
        <linearGradient id="paint0_linear_240_2608" x1="5.58793e-08" y1="7.99996" x2="20" y2="7.99996"
                        gradientUnits="userSpaceOnUse">
            <stop stop-color="#0439AD"/>
            <stop offset="1" stop-color="#38028F"/>
        </linearGradient>
        <linearGradient id="paint1_linear_240_2608" x1="5.58793e-08" y1="7.99996" x2="20" y2="7.99996"
                        gradientUnits="userSpaceOnUse">
            <stop stop-color="#0439AD"/>
            <stop offset="1" stop-color="#38028F"/>
        </linearGradient>
        <linearGradient id="paint2_linear_240_2608" x1="5.58793e-08" y1="7.99996" x2="20" y2="7.99996"
                        gradientUnits="userSpaceOnUse">
            <stop stop-color="#0439AD"/>
            <stop offset="1" stop-color="#38028F"/>
        </linearGradient>
        <linearGradient id="paint3_linear_240_2608" x1="5.58793e-08" y1="7.99996" x2="20" y2="7.99996"
                        gradientUnits="userSpaceOnUse">
            <stop stop-color="#0439AD"/>
            <stop offset="1" stop-color="#38028F"/>
        </linearGradient>
        <linearGradient id="paint4_linear_240_2608" x1="5.58793e-08" y1="7.99996" x2="20" y2="7.99996"
                        gradientUnits="userSpaceOnUse">
            <stop stop-color="#0439AD"/>
            <stop offset="1" stop-color="#38028F"/>
        </linearGradient>
        <linearGradient id="paint5_linear_240_2608" x1="5.58793e-08" y1="7.99996" x2="20" y2="7.99996"
                        gradientUnits="userSpaceOnUse">
            <stop stop-color="#0439AD"/>
            <stop offset="1" stop-color="#38028F"/>
        </linearGradient>
    </defs>
</svg>
