<svg width="25" height="25" viewBox="0 0 25 25" fill="none" xmlns="http://www.w3.org/2000/svg">
<path d="M25 0H0V25H25V0Z" fill="#2E8DFD"/>
<path d="M13.7506 4.11736C13.138 3.97108 12.4996 3.89139 11.8427 3.89139C7.2851 3.89139 3.59033 7.61502 3.59033 12.2082C3.59033 16.8013 7.2851 20.525 11.8427 20.525C12.4996 20.525 13.1378 20.4453 13.7506 20.299V4.11736Z" fill="#00B8D9"/>
<path d="M13.4937 20.3586C16.5512 19.733 18.9931 17.4033 19.8049 14.3965L13.4937 14.7406V20.3586Z" fill="#FF991F"/>
<path d="M13.4935 6.07131C13.2377 6.04123 12.9788 6.0217 12.715 6.0217C9.03637 6.0217 6.0542 9.02717 6.0542 12.7346C6.0542 16.442 9.03637 19.4475 12.715 19.4475C12.9788 19.4475 13.2377 19.4279 13.4935 19.3979V6.07131Z" fill="white"/>
<path d="M10.1471 12.7705C11.0837 12.7705 11.843 12.0053 11.843 11.0613C11.843 10.1174 11.0837 9.35216 10.1471 9.35216C9.21047 9.35216 8.45117 10.1174 8.45117 11.0613C8.45117 12.0053 9.21047 12.7705 10.1471 12.7705Z" fill="#403294"/>
<path d="M13.4937 14.7404C13.4937 14.7404 16.075 17.4726 19.8055 14.3963C19.8055 14.3963 21.014 13.1826 22.5671 14.6314C22.7382 14.7912 23.0142 14.6516 22.9954 14.4174C22.8192 12.2117 21.6126 5.53925 13.4937 4.058V14.7404Z" fill="#FFC400"/>
<path d="M15.3452 6.48028C15.7741 6.60446 16.1734 6.52705 16.237 6.30738C16.3006 6.08771 16.0044 5.80896 15.5755 5.68478C15.1466 5.5606 14.7473 5.63801 14.6837 5.85768C14.6201 6.07735 14.9163 6.3561 15.3452 6.48028Z" fill="#FF991F"/>
</svg>
