<svg width="40" height="40" viewBox="0 0 40 40" fill="none" xmlns="http://www.w3.org/2000/svg">
<path d="M40 0H0V40H40V0Z" fill="#2E8DFD"/>
<path d="M12.5885 34.2694H11.9263C11.3788 34.2694 10.9307 33.8212 10.9307 33.2737V29.3525C10.9307 28.805 11.3788 28.3569 11.9263 28.3569H12.5885C13.136 28.3569 13.5841 28.805 13.5841 29.3525V33.2737C13.5841 33.8212 13.136 34.2694 12.5885 34.2694Z" fill="#5243AA"/>
<path d="M27.8229 34.2694H27.1607C26.6132 34.2694 26.165 33.8212 26.165 33.2737V29.3525C26.165 28.805 26.6132 28.3569 27.1607 28.3569H27.8229C28.3704 28.3569 28.8185 28.805 28.8185 29.3525V33.2737C28.8185 33.8212 28.3704 34.2694 27.8229 34.2694Z" fill="#5243AA"/>
<path d="M19.9502 32.7241C27.4789 32.7241 33.5821 28.5249 33.5821 23.345C33.5821 18.1651 27.4789 13.9659 19.9502 13.9659C12.4216 13.9659 6.31836 18.1651 6.31836 23.345C6.31836 28.5249 12.4216 32.7241 19.9502 32.7241Z" fill="#6555C0"/>
<path d="M19.9889 30.5219C28.671 30.5219 35.7092 26.3227 35.7092 21.1428C35.7092 15.9629 28.671 11.7638 19.9889 11.7638C11.3068 11.7638 4.26855 15.9629 4.26855 21.1428C4.26855 26.3227 11.3068 30.5219 19.9889 30.5219Z" fill="#8777D9"/>
<path d="M29.6134 15.1806C29.6256 14.9863 29.6337 14.7891 29.6337 14.5866C29.6337 9.19688 25.2646 4.82782 19.875 4.82782C14.5921 4.82782 10.2928 9.02626 10.1243 14.2678H10.1162V16.8516H10.1231C10.2062 19.8863 11.705 21.9894 13.9906 23.2159L25.7609 23.2166C28.1137 21.955 29.6337 19.7653 29.6337 16.5863C29.6337 16.3838 29.6256 16.1831 29.6134 15.9838V15.1806Z" fill="white"/>
<path opacity="0.15" d="M10.1493 13.8306C10.1381 13.9756 10.129 14.1212 10.1243 14.2678H10.1162V16.8516H10.1231C10.2656 22.0581 14.5753 24.5225 19.875 24.5225C25.2646 24.5225 29.6337 21.9759 29.6337 16.5866C29.6337 16.3841 29.6256 16.1834 29.6134 15.9841V15.1809C29.6256 14.9866 29.6337 14.7894 29.6337 14.5869C29.6337 14.2947 29.6184 14.0062 29.5934 13.7209C26.9368 12.4956 23.6068 11.7644 19.989 11.7644C16.2634 11.7637 12.8431 12.5384 10.1493 13.8306Z" fill="#7F4CBF"/>
<path d="M19.8749 8.82907C16.6377 8.82907 13.9893 11.4775 13.9893 14.7147V16.6184V21.3116V23.2153C15.6255 24.0928 17.6639 24.5222 19.8749 24.5222C22.0858 24.5222 24.1243 24.0928 25.7605 23.2153V21.3116V16.6184V14.7147C25.7605 11.4775 23.1121 8.82907 19.8749 8.82907Z" fill="#2E8DFD"/>
<path d="M19.9565 19.3356C21.879 19.3356 23.4375 17.7771 23.4375 15.8547C23.4375 13.9322 21.879 12.3737 19.9565 12.3737C18.0341 12.3737 16.4756 13.9322 16.4756 15.8547C16.4756 17.7771 18.0341 19.3356 19.9565 19.3356Z" fill="white"/>
<path d="M19.8347 17.1956C20.5972 17.1956 21.2154 16.5775 21.2154 15.815C21.2154 15.0525 20.5972 14.4344 19.8347 14.4344C19.0722 14.4344 18.4541 15.0525 18.4541 15.815C18.4541 16.5775 19.0722 17.1956 19.8347 17.1956Z" fill="#403294"/>
</svg>
