<svg width="40" height="40" viewBox="0 0 40 40" fill="none" xmlns="http://www.w3.org/2000/svg">
<mask id="mask0_1018_752" style="mask-type:alpha" maskUnits="userSpaceOnUse" x="0" y="0" width="40" height="40">
<path d="M30 0H10C4.47715 0 0 4.47715 0 10V30C0 35.5228 4.47715 40 10 40H30C35.5228 40 40 35.5228 40 30V10C40 4.47715 35.5228 0 30 0Z" fill="white"/>
</mask>
<g mask="url(#mask0_1018_752)">
<path d="M30 0H10C4.47715 0 0 4.47715 0 10V30C0 35.5228 4.47715 40 10 40H30C35.5228 40 40 35.5228 40 30V10C40 4.47715 35.5228 0 30 0Z" fill="#2E8DFD"/>
<path d="M31.4232 10.9766C31.4232 9.83186 30.4866 8.8953 29.342 8.8953H9.50039C8.04883 8.8953 6.86133 10.0828 6.86133 11.5344V13.9553C6.86133 19.4781 11.3385 23.9553 16.8613 23.9553H21.6291C27.0383 23.9553 31.4232 19.5704 31.4232 14.1612V10.9766Z" fill="#2A5083"/>
<path d="M27.8713 8.8953H25.8973C25.7698 8.8953 25.6481 8.94857 25.5615 9.04224C25.3844 9.23406 25.0828 9.23871 24.8998 9.05244L24.8855 9.03786C24.7959 8.94667 24.6734 8.8953 24.5455 8.8953H9.50039C8.04883 8.8953 6.86133 10.0828 6.86133 11.5344C6.86133 12.9859 8.04883 14.1734 9.50039 14.1734H27.8716C29.3232 14.1734 30.5107 12.9859 30.5107 11.5344C30.5107 10.0828 29.3229 8.8953 27.8713 8.8953Z" fill="#153A56"/>
<path d="M30.004 8.8953C26.8112 8.8953 24.1469 11.3333 23.8642 14.5135L23.4438 19.2426C23.2187 21.775 25.2138 23.9553 27.7562 23.9553C30.1472 23.9553 32.0855 22.017 32.0855 19.626V14.1612V10.9766C32.0855 9.83186 31.1487 8.8953 30.004 8.8953Z" fill="#153A56"/>
<path d="M25.2363 9.39469L24.9388 8.89532L23.6354 6.7075C23.2635 6.08344 22.4597 5.87407 21.8307 6.23688L17.2229 8.89532L9.38676 13.4163C9.00073 13.639 9.05499 14.1731 9.50066 14.1731H9.91066H27.8719C27.9653 14.1731 28.0231 14.0714 27.9753 13.9911L25.2363 9.39469Z" fill="#30CE25"/>
<path d="M8.42383 31.8928H31.6085C32.4679 31.8928 33.171 31.1897 33.171 30.3303V15.7356C33.171 14.8763 32.4679 14.1731 31.6085 14.1731H8.42383C7.56445 14.1731 6.86133 14.8763 6.86133 15.7356V30.33C6.86133 31.1897 7.56445 31.8928 8.42383 31.8928Z" fill="#253858"/>
<path d="M27.823 26.2447H33.6664C34.1821 26.2447 34.6039 25.8228 34.6039 25.3072V20.1112C34.6039 19.5956 34.1821 19.1737 33.6664 19.1737H27.823C26.3633 19.1737 25.1689 20.3681 25.1689 21.8278V23.5903C25.1689 25.0503 26.3633 26.2447 27.823 26.2447Z" fill="#153A56"/>
<path d="M28.8973 24.3222C29.7882 24.3222 30.5104 23.6 30.5104 22.709C30.5104 21.8181 29.7882 21.0959 28.8973 21.0959C28.0064 21.0959 27.2842 21.8181 27.2842 22.709C27.2842 23.6 28.0064 24.3222 28.8973 24.3222Z" fill="white"/>
<path d="M18.8049 26.6809C20.9985 26.6809 22.7768 24.9027 22.7768 22.7091C22.7768 20.5155 20.9985 18.7372 18.8049 18.7372C16.6113 18.7372 14.833 20.5155 14.833 22.7091C14.833 24.9027 16.6113 26.6809 18.8049 26.6809Z" fill="#BABEC6"/>
<path opacity="0.5" d="M25.7394 14.0378L22.5041 8.61532C22.3651 8.3822 22.0604 8.30501 21.8269 8.44438L19.0451 10.1041C18.8119 10.2431 18.7348 10.5478 18.8741 10.7813C19.0132 11.0144 19.3179 11.0916 19.5513 10.9522C20.8535 10.1752 22.539 10.601 23.316 11.9032L24.4945 13.8784C24.6036 14.0612 24.8008 14.1731 25.0136 14.1731H25.6469C25.7209 14.1731 25.7772 14.1014 25.7394 14.0378Z" fill="white"/>
<path opacity="0.5" d="M16.2587 14.1731C17.7781 14.1731 18.5811 12.5311 17.1066 12.1646C16.8351 12.0971 16.551 12.0612 16.2585 12.0612C15.9662 12.0612 15.6822 12.097 15.4108 12.1645C13.9362 12.5308 14.7393 14.1731 16.2587 14.1731Z" fill="white"/>
<path d="M26.5565 11.8094C25.7397 10.3378 26.53 8.49107 28.1584 8.06595C28.8681 7.88064 29.5937 8.30564 29.779 9.01564L30.5602 12.007C30.8463 13.1029 30.0194 14.1735 28.8868 14.1735C28.2585 14.1735 27.6796 13.8327 27.3746 13.2833L26.5565 11.8094Z" fill="#30CE25"/>
<path opacity="0.5" d="M29.3181 14.1728C29.3181 14.1729 29.318 14.1729 29.318 14.1728L28.2275 10.2397C28.155 9.9778 27.8812 9.82311 27.6197 9.89561L26.3966 10.2347C26.0887 10.3201 25.9417 10.6709 26.0968 10.9502C26.2075 11.1497 26.4406 11.2473 26.6604 11.1863L26.7801 11.1532C27.1268 11.057 27.4857 11.2601 27.5819 11.6068L28.1751 13.7463C28.245 13.9983 28.4745 14.1728 28.736 14.1728H29.3181C29.3181 14.1728 29.3181 14.1728 29.3181 14.1728Z" fill="white"/>
<path opacity="0.1" d="M26.0421 8.61829C26.4977 8.49933 26.9661 8.75994 27.1053 9.20972L28.4817 13.6587C28.5608 13.9141 28.3698 14.1731 28.1024 14.1731C27.9582 14.1731 27.8253 14.0949 27.7553 13.9688L25.495 9.897C25.216 9.39437 25.4859 8.76355 26.0421 8.61829Z" fill="#153A56"/>
<path opacity="0.1" d="M30.7235 13.1172H9.15346C8.76694 13.1172 8.45361 13.4305 8.45361 13.817C8.45361 14.2035 8.76695 14.5169 9.15346 14.5169H30.7235C31.11 14.5169 31.4233 14.2035 31.4233 13.817C31.4233 13.4305 31.11 13.1172 30.7235 13.1172Z" fill="#153A56"/>
</g>
</svg>
