<svg width="40" height="40" viewBox="0 0 40 40" fill="none" xmlns="http://www.w3.org/2000/svg">
<mask id="mask0_126_922" style="mask-type:alpha" maskUnits="userSpaceOnUse" x="0" y="0" width="40" height="40">
<path d="M30 0H10C4.47715 0 0 4.47715 0 10V30C0 35.5228 4.47715 40 10 40H30C35.5228 40 40 35.5228 40 30V10C40 4.47715 35.5228 0 30 0Z" fill="white"/>
</mask>
<g mask="url(#mask0_126_922)">
<path d="M30 0H10C4.47715 0 0 4.47715 0 10V30C0 35.5228 4.47715 40 10 40H30C35.5228 40 40 35.5228 40 30V10C40 4.47715 35.5228 0 30 0Z" fill="url(#paint0_linear_126_922)"/>
<path d="M26.9746 8H12.0254C10.3615 8 9 9.37497 9 11.0553V39.9268L30 40V11.0553C30 9.37497 28.6388 8 26.9746 8Z" fill="#253858"/>
<path d="M10 14V40L29 39.9997V14H10Z" fill="white"/>
<path d="M19.5 29C23.0899 29 26 26.0899 26 22.5C26 18.9101 23.0899 16 19.5 16C15.9101 16 13 18.9101 13 22.5C13 26.0899 15.9101 29 19.5 29Z" fill="#FFBDAE"/>
<path d="M31.8439 16.3839C33.3854 19.3731 33.3854 23.6269 31.8439 26.6161C31.6308 27.0299 31.2843 27.1153 31.1147 26.8424C30.9443 26.5688 30.9721 26.0959 31.1427 25.7623C32.4269 23.2721 32.4269 19.7279 31.1427 17.2377C30.9721 16.9041 30.9443 16.4312 31.1147 16.1576C31.2841 15.8847 31.6308 15.9701 31.8439 16.3839Z" fill="white"/>
<path d="M7.15614 16.3839C5.61462 19.3731 5.61462 23.6269 7.15614 26.6161C7.36915 27.0299 7.71569 27.1153 7.88525 26.8424C8.05566 26.5688 8.0279 26.0959 7.85727 25.7623C6.57306 23.2721 6.57306 19.7279 7.85727 17.2377C8.0279 16.9041 8.05566 16.4312 7.88525 16.1576C7.71569 15.8847 7.36894 15.9701 7.15614 16.3839Z" fill="white"/>
<path d="M24.392 12H14.608C14.2737 12 14 11.6617 14 11.2485V10.7515C14 10.3383 14.2737 10 14.608 10H24.392C24.7263 10 25 10.3383 25 10.7515V11.2485C25 11.6617 24.7266 12 24.392 12Z" fill="#1B4068"/>
<path d="M21.8204 23H17.1792C17.0803 23 17 23.0899 17 23.2007C17 24.1883 17.4567 25.0562 18.1464 25.5548C18.1532 25.5596 18.16 25.5644 18.1668 25.5693H18.1719C18.5569 25.8406 19.0114 26 19.5 26C19.99 26 20.446 25.8398 20.8317 25.5668L20.8332 25.5693C21.5343 25.0735 22 24.1979 22 23.2007C21.9996 23.0899 21.9193 23 21.8204 23Z" fill="#FF4E4A"/>
<path d="M16.5 22C16.7761 22 17 21.7761 17 21.5C17 21.2239 16.7761 21 16.5 21C16.2239 21 16 21.2239 16 21.5C16 21.7761 16.2239 22 16.5 22Z" fill="#333333"/>
<path d="M22.5 22C22.7761 22 23 21.7761 23 21.5C23 21.2239 22.7761 21 22.5 21C22.2239 21 22 21.2239 22 21.5C22 21.7761 22.2239 22 22.5 22Z" fill="#333333"/>
<path d="M21.5043 36H24.4957C24.7731 36 25 35.7592 25 35.465V32.535C25 32.2408 24.7731 32 24.4957 32H21.5043C21.2269 32 21 32.2408 21 32.535V35.465C21 35.7592 21.2269 36 21.5043 36Z" fill="#B3D4FF"/>
<path d="M14.5043 36H17.4957C17.7731 36 18 35.7592 18 35.465V32.535C18 32.2408 17.7731 32 17.4957 32H14.5043C14.2269 32 14 32.2408 14 32.535V35.465C14 35.7592 14.2269 36 14.5043 36Z" fill="#FF4E4A"/>
</g>
<defs>
<linearGradient id="paint0_linear_126_922" x1="-2.04891e-07" y1="20.0001" x2="40" y2="20.0001" gradientUnits="userSpaceOnUse">
<stop stop-color="#7F28D9"/>
<stop offset="1" stop-color="#7427CC"/>
</linearGradient>
</defs>
</svg>
