<svg width="126" height="126" viewBox="0 0 126 126" fill="none" xmlns="http://www.w3.org/2000/svg">
<path d="M63 61.9289C77.2744 61.9289 88.8462 50.4162 88.8462 36.2146C88.8462 22.013 77.2744 10.5003 63 10.5003C48.7256 10.5003 37.1538 22.013 37.1538 36.2146C37.1538 50.4162 48.7256 61.9289 63 61.9289Z" fill="white"/>
<path d="M76.4615 72.6437H49.5385C33.9231 72.6437 21 85.5008 21 101.037C21 104.787 22.6154 108.001 25.8462 109.608C30.6923 112.287 41.4615 115.501 63 115.501C84.5385 115.501 95.3077 112.287 100.154 109.608C102.846 108.001 105 104.787 105 101.037C105 84.9651 92.0769 72.6437 76.4615 72.6437Z" fill="white"/>
</svg>
