<svg width="32" height="32" viewBox="0 0 32 32" fill="none" xmlns="http://www.w3.org/2000/svg">
    <path d="M11.2256 3.72781C11.7135 2.26689 13.5633 1.82225 14.6619 2.9018L18.3623 6.53813C18.56 6.73241 18.8414 6.81567 19.113 6.76026L24.1964 5.72313C25.7056 5.41522 27.0155 6.79483 26.6299 8.28602L25.331 13.3089C25.2616 13.5773 25.3301 13.8626 25.5139 14.0701L28.9538 17.9538C29.975 19.1068 29.4352 20.9311 27.951 21.3427L22.9516 22.7293C22.6845 22.8034 22.4717 23.0054 22.3839 23.2683L20.7404 28.1892C20.2525 29.6501 18.4027 30.0948 17.3041 29.0152L13.6037 25.3789C13.406 25.1846 13.1246 25.1014 12.853 25.1568L7.7696 26.1939C6.26045 26.5018 4.95051 25.1222 5.33613 23.631L6.63504 18.6081C6.70444 18.3398 6.63586 18.0545 6.45207 17.847L3.01219 13.9632C1.99096 12.8102 2.53076 10.9859 4.01498 10.5743L9.01438 9.18776C9.28148 9.11368 9.49427 8.91163 9.58208 8.64872L11.2256 3.72781Z"
          fill="url(#paint0_radial_134_1482)"/>
    <path d="M17.32 7.45303L13.6933 10.6776C12.9626 11.3273 12.8752 12.4543 13.5907 13.1207C16.6962 16.0131 19.5474 15.9006 21.2594 15.168C21.9431 14.8754 22.1615 14.0737 21.9271 13.3681L20.2202 8.22971C19.8132 7.00421 18.2851 6.59499 17.32 7.45303Z"
          fill="url(#paint1_linear_134_1482)"/>
    <path d="M14.822 24.2373L18.4942 21.0646C19.2341 20.4254 19.3375 19.2997 18.6316 18.6232C15.5675 15.6869 12.7149 15.7588 10.9927 16.4671C10.305 16.7499 10.0752 17.5484 10.2995 18.2573L11.9331 23.4194C12.3227 24.6506 13.8448 25.0815 14.822 24.2373Z"
          fill="url(#paint2_linear_134_1482)"/>
    <defs>
        <radialGradient id="paint0_radial_134_1482" cx="0" cy="0" r="1" gradientUnits="userSpaceOnUse"
                        gradientTransform="translate(15.983 15.9585) rotate(76.4838) scale(13.9837 12.3919)">
            <stop offset="0.478692" stop-color="#FFF24F"/>
            <stop offset="1" stop-color="#F6C103"/>
        </radialGradient>
        <linearGradient id="paint1_linear_134_1482" x1="18.3826" y1="17.0694" x2="19.007" y2="7.51739"
                        gradientUnits="userSpaceOnUse">
            <stop offset="0.421397" stop-color="#FFEE19" stop-opacity="0.5"/>
            <stop offset="0.931844" stop-color="#F4BF00"/>
        </linearGradient>
        <linearGradient id="paint2_linear_134_1482" x1="13.8962" y1="14.6068" x2="13.1361" y2="24.1489"
                        gradientUnits="userSpaceOnUse">
            <stop offset="0.421397" stop-color="#FFEE19" stop-opacity="0.5"/>
            <stop offset="0.931844" stop-color="#F4BF00"/>
        </linearGradient>
    </defs>
</svg>
